0
SECTION
2
HEADER
9
$ACADVER
1
AC1009
9
$EXTMIN
10
0.010000
20
0.010000
30
0.0
9
$EXTMAX
10
1.590000
20
0.990000
30
0.0
9
$INSUNITS
70
6
0
ENDSEC
0
SECTION
2
TABLES
0
TABLE
2
LTYPE
70
1
0
LTYPE
2
CONTINUOUS
70
0
3
Solid line
72
65
73
0
40
0.0
0
ENDTAB
0
TABLE
2
LAYER
70
6
0
LAYER
2
0
70
0
62
7
6
CONTINUOUS
0
LAYER
2
Fiber_Path_Minus1
70
0
62
1
6
CONTINUOUS
0
LAYER
2
Fiber_Path_Minus2
70
0
62
2
6
CONTINUOUS
0
LAYER
2
Fiber_Path_Zero
70
0
62
3
6
CONTINUOUS
0
LAYER
2
Fiber_Path_Plus4
70
0
62
4
6
CONTINUOUS
0
LAYER
2
Fiber_Path_Plus5
70
0
62
5
6
CONTINUOUS
0
ENDTAB
0
ENDSEC
0
SECTION
2
ENTITIES
0
POLYLINE
8
Fiber_Path_Minus1
66
1
70
0
10
0.0
20
0.0
30
0.0
0
VERTEX
8
Fiber_Path_Minus1
10
0.010000
20
0.050985
30
0.0
70
0
0
VERTEX
8
Fiber_Path_Minus1
10
0.011021
20
0.050000
30
0.0
70
0
0
VERTEX
8
Fiber_Path_Minus1
10
0.010000
20
0.049271
30
0.0
70
0
0
SEQEND
8
Fiber_Path_Minus1
0
POLYLINE
8
Fiber_Path_Minus1
66
1
70
0
10
0.0
20
0.0
30
0.0
0
VERTEX
8
Fiber_Path_Minus1
10
1.490000
20
0.573431
30
0.0
70
0
0
VERTEX
8
Fiber_Path_Minus1
10
1.470000
20
0.586625
30
0.0
70
0
0
VERTEX
8
Fiber_Path_Minus1
10
1.464675
20
0.590000
30
0.0
70
0
0
VERTEX
8
Fiber_Path_Minus1
10
1.450000
20
0.599009
30
0.0
70
0
0
VERTEX
8
Fiber_Path_Minus1
10
1.430000
20
0.607727
30
0.0
70
0
0
VERTEX
8
Fiber_Path_Minus1
10
1.425879
20
0.610000
30
0.0
70
0
0
VERTEX
8
Fiber_Path_Minus1
10
1.410000
20
0.619181
30
0.0
70
0
0
VERTEX
8
Fiber_Path_Minus1
10
1.390000
20
0.627737
30
0.0
70
0
0
VERTEX
8
Fiber_Path_Minus1
10
1.370000
20
0.629891
30
0.0
70
0
0
VERTEX
8
Fiber_Path_Minus1
10
1.369760
20
0.630000
30
0.0
70
0
0
VERTEX
8
Fiber_Path_Minus1
10
1.350000
20
0.639837
30
0.0
70
0
0
VERTEX
8
Fiber_Path_Minus1
10
1.330000
20
0.647847
30
0.0
70
0
0
VERTEX
8
Fiber_Path_Minus1
10
1.326009
20
0.650000
30
0.0
70
0
0
VERTEX
8
Fiber_Path_Minus1
10
1.310000
20
0.659198
30
0.0
70
0
0
VERTEX
8
Fiber_Path_Minus1
10
1.290000
20
0.667738
30
0.0
70
0
0
VERTEX
8
Fiber_Path_Minus1
10
1.270000
20
0.669891
30
0.0
70
0
0
VERTEX
8
Fiber_Path_Minus1
10
1.250000
20
0.670000
30
0.0
70
0
0
VERTEX
8
Fiber_Path_Minus1
10
1.249999
20
0.670000
30
0.0
70
0
0
VERTEX
8
Fiber_Path_Minus1
10
1.230000
20
0.679861
30
0.0
70
0
0
VERTEX
8
Fiber_Path_Minus1
10
1.210000
20
0.687850
30
0.0
70
0
0
VERTEX
8
Fiber_Path_Minus1
10
1.190000
20
0.689898
30
0.0
70
0
0
VERTEX
8
Fiber_Path_Minus1
10
1.170000
20
0.690000
30
0.0
70
0
0
VERTEX
8
Fiber_Path_Minus1
10
1.169999
20
0.690000
30
0.0
70
0
0
VERTEX
8
Fiber_Path_Minus1
10
1.150000
20
0.699861
30
0.0
70
0
0
VERTEX
8
Fiber_Path_Minus1
10
1.130000
20
0.707850
30
0.0
70
0
0
VERTEX
8
Fiber_Path_Minus1
10
1.110000
20
0.709898
30
0.0
70
0
0
VERTEX
8
Fiber_Path_Minus1
10
1.090000
20
0.710000
30
0.0
70
0
0
VERTEX
8
Fiber_Path_Minus1
10
1.089999
20
0.710000
30
0.0
70
0
0
VERTEX
8
Fiber_Path_Minus1
10
1.070000
20
0.719861
30
0.0
70
0
0
VERTEX
8
Fiber_Path_Minus1
10
1.050000
20
0.727850
30
0.0
70
0
0
VERTEX
8
Fiber_Path_Minus1
10
1.030000
20
0.729898
30
0.0
70
0
0
VERTEX
8
Fiber_Path_Minus1
10
1.010000
20
0.730000
30
0.0
70
0
0
VERTEX
8
Fiber_Path_Minus1
10
0.990000
20
0.730000
30
0.0
70
0
0
VERTEX
8
Fiber_Path_Minus1
10
0.970000
20
0.730000
30
0.0
70
0
0
VERTEX
8
Fiber_Path_Minus1
10
0.950000
20
0.739861
30
0.0
70
0
0
VERTEX
8
Fiber_Path_Minus1
10
0.930000
20
0.747850
30
0.0
70
0
0
VERTEX
8
Fiber_Path_Minus1
10
0.910000
20
0.749898
30
0.0
70
0
0
VERTEX
8
Fiber_Path_Minus1
10
0.890000
20
0.750000
30
0.0
70
0
0
VERTEX
8
Fiber_Path_Minus1
10
0.870000
20
0.750000
30
0.0
70
0
0
VERTEX
8
Fiber_Path_Minus1
10
0.870000
20
0.750000
30
0.0
70
0
0
VERTEX
8
Fiber_Path_Minus1
10
0.850000
20
0.759861
30
0.0
70
0
0
VERTEX
8
Fiber_Path_Minus1
10
0.830000
20
0.767850
30
0.0
70
0
0
VERTEX
8
Fiber_Path_Minus1
10
0.810000
20
0.769898
30
0.0
70
0
0
VERTEX
8
Fiber_Path_Minus1
10
0.790000
20
0.770000
30
0.0
70
0
0
VERTEX
8
Fiber_Path_Minus1
10
0.789999
20
0.770000
30
0.0
70
0
0
VERTEX
8
Fiber_Path_Minus1
10
0.770000
20
0.779861
30
0.0
70
0
0
VERTEX
8
Fiber_Path_Minus1
10
0.750000
20
0.787850
30
0.0
70
0
0
VERTEX
8
Fiber_Path_Minus1
10
0.730000
20
0.789898
30
0.0
70
0
0
VERTEX
8
Fiber_Path_Minus1
10
0.710000
20
0.790000
30
0.0
70
0
0
VERTEX
8
Fiber_Path_Minus1
10
0.709999
20
0.790000
30
0.0
70
0
0
VERTEX
8
Fiber_Path_Minus1
10
0.690000
20
0.799861
30
0.0
70
0
0
VERTEX
8
Fiber_Path_Minus1
10
0.670000
20
0.807850
30
0.0
70
0
0
VERTEX
8
Fiber_Path_Minus1
10
0.650000
20
0.809898
30
0.0
70
0
0
VERTEX
8
Fiber_Path_Minus1
10
0.630000
20
0.810000
30
0.0
70
0
0
VERTEX
8
Fiber_Path_Minus1
10
0.629999
20
0.810000
30
0.0
70
0
0
VERTEX
8
Fiber_Path_Minus1
10
0.610000
20
0.819861
30
0.0
70
0
0
VERTEX
8
Fiber_Path_Minus1
10
0.590000
20
0.827850
30
0.0
70
0
0
VERTEX
8
Fiber_Path_Minus1
10
0.570000
20
0.829898
30
0.0
70
0
0
VERTEX
8
Fiber_Path_Minus1
10
0.569775
20
0.830000
30
0.0
70
0
0
VERTEX
8
Fiber_Path_Minus1
10
0.550000
20
0.839838
30
0.0
70
0
0
VERTEX
8
Fiber_Path_Minus1
10
0.530000
20
0.847847
30
0.0
70
0
0
VERTEX
8
Fiber_Path_Minus1
10
0.510000
20
0.849898
30
0.0
70
0
0
VERTEX
8
Fiber_Path_Minus1
10
0.490000
20
0.850000
30
0.0
70
0
0
VERTEX
8
Fiber_Path_Minus1
10
0.489999
20
0.850000
30
0.0
70
0
0
VERTEX
8
Fiber_Path_Minus1
10
0.470000
20
0.859861
30
0.0
70
0
0
VERTEX
8
Fiber_Path_Minus1
10
0.450000
20
0.867850
30
0.0
70
0
0
VERTEX
8
Fiber_Path_Minus1
10
0.430000
20
0.869898
30
0.0
70
0
0
VERTEX
8
Fiber_Path_Minus1
10
0.429775
20
0.870000
30
0.0
70
0
0
VERTEX
8
Fiber_Path_Minus1
10
0.410000
20
0.879838
30
0.0
70
0
0
VERTEX
8
Fiber_Path_Minus1
10
0.390000
20
0.887847
30
0.0
70
0
0
VERTEX
8
Fiber_Path_Minus1
10
0.386009
20
0.890000
30
0.0
70
0
0
VERTEX
8
Fiber_Path_Minus1
10
0.370000
20
0.899198
30
0.0
70
0
0
VERTEX
8
Fiber_Path_Minus1
10
0.350000
20
0.907738
30
0.0
70
0
0
VERTEX
8
Fiber_Path_Minus1
10
0.330000
20
0.909891
30
0.0
70
0
0
VERTEX
8
Fiber_Path_Minus1
10
0.329760
20
0.910000
30
0.0
70
0
0
VERTEX
8
Fiber_Path_Minus1
10
0.310000
20
0.919837
30
0.0
70
0
0
VERTEX
8
Fiber_Path_Minus1
10
0.290000
20
0.927847
30
0.0
70
0
0
VERTEX
8
Fiber_Path_Minus1
10
0.270000
20
0.929898
30
0.0
70
0
0
VERTEX
8
Fiber_Path_Minus1
10
0.250000
20
0.930000
30
0.0
70
0
0
VERTEX
8
Fiber_Path_Minus1
10
0.230000
20
0.930000
30
0.0
70
0
0
VERTEX
8
Fiber_Path_Minus1
10
0.210000
20
0.930000
30
0.0
70
0
0
VERTEX
8
Fiber_Path_Minus1
10
0.190000
20
0.930000
30
0.0
70
0
0
VERTEX
8
Fiber_Path_Minus1
10
0.170000
20
0.930000
30
0.0
70
0
0
VERTEX
8
Fiber_Path_Minus1
10
0.150000
20
0.929999
30
0.0
70
0
0
VERTEX
8
Fiber_Path_Minus1
10
0.130000
20
0.929585
30
0.0
70
0
0
VERTEX
8
Fiber_Path_Minus1
10
0.111789
20
0.910000
30
0.0
70
0
0
VERTEX
8
Fiber_Path_Minus1
10
0.130000
20
0.900306
30
0.0
70
0
0
VERTEX
8
Fiber_Path_Minus1
10
0.150000
20
0.892161
30
0.0
70
0
0
VERTEX
8
Fiber_Path_Minus1
10
0.170000
20
0.890102
30
0.0
70
0
0
VERTEX
8
Fiber_Path_Minus1
10
0.190000
20
0.890000
30
0.0
70
0
0
VERTEX
8
Fiber_Path_Minus1
10
0.190001
20
0.890000
30
0.0
70
0
0
VERTEX
8
Fiber_Path_Minus1
10
0.210000
20
0.880139
30
0.0
70
0
0
VERTEX
8
Fiber_Path_Minus1
10
0.224242
20
0.870000
30
0.0
70
0
0
VERTEX
8
Fiber_Path_Minus1
10
0.230000
20
0.865223
30
0.0
70
0
0
VERTEX
8
Fiber_Path_Minus1
10
0.250000
20
0.853278
30
0.0
70
0
0
VERTEX
8
Fiber_Path_Minus1
10
0.270000
20
0.850187
30
0.0
70
0
0
VERTEX
8
Fiber_Path_Minus1
10
0.290000
20
0.850001
30
0.0
70
0
0
VERTEX
8
Fiber_Path_Minus1
10
0.290002
20
0.850000
30
0.0
70
0
0
VERTEX
8
Fiber_Path_Minus1
10
0.310000
20
0.840139
30
0.0
70
0
0
VERTEX
8
Fiber_Path_Minus1
10
0.330000
20
0.832150
30
0.0
70
0
0
VERTEX
8
Fiber_Path_Minus1
10
0.350000
20
0.830102
30
0.0
70
0
0
VERTEX
8
Fiber_Path_Minus1
10
0.350225
20
0.830000
30
0.0
70
0
0
VERTEX
8
Fiber_Path_Minus1
10
0.370000
20
0.820162
30
0.0
70
0
0
VERTEX
8
Fiber_Path_Minus1
10
0.390000
20
0.812153
30
0.0
70
0
0
VERTEX
8
Fiber_Path_Minus1
10
0.393991
20
0.810000
30
0.0
70
0
0
VERTEX
8
Fiber_Path_Minus1
10
0.410000
20
0.800802
30
0.0
70
0
0
VERTEX
8
Fiber_Path_Minus1
10
0.430000
20
0.792262
30
0.0
70
0
0
VERTEX
8
Fiber_Path_Minus1
10
0.450000
20
0.790109
30
0.0
70
0
0
VERTEX
8
Fiber_Path_Minus1
10
0.470000
20
0.790000
30
0.0
70
0
0
VERTEX
8
Fiber_Path_Minus1
10
0.490000
20
0.790000
30
0.0
70
0
0
VERTEX
8
Fiber_Path_Minus1
10
0.490000
20
0.790000
30
0.0
70
0
0
VERTEX
8
Fiber_Path_Minus1
10
0.510000
20
0.780139
30
0.0
70
0
0
VERTEX
8
Fiber_Path_Minus1
10
0.530000
20
0.772150
30
0.0
70
0
0
VERTEX
8
Fiber_Path_Minus1
10
0.533988
20
0.770000
30
0.0
70
0
0
VERTEX
8
Fiber_Path_Minus1
10
0.550000
20
0.760802
30
0.0
70
0
0
VERTEX
8
Fiber_Path_Minus1
10
0.570000
20
0.752262
30
0.0
70
0
0
VERTEX
8
Fiber_Path_Minus1
10
0.590000
20
0.750109
30
0.0
70
0
0
VERTEX
8
Fiber_Path_Minus1
10
0.590240
20
0.750000
30
0.0
70
0
0
VERTEX
8
Fiber_Path_Minus1
10
0.610000
20
0.740163
30
0.0
70
0
0
VERTEX
8
Fiber_Path_Minus1
10
0.630000
20
0.732153
30
0.0
70
0
0
VERTEX
8
Fiber_Path_Minus1
10
0.650000
20
0.730102
30
0.0
70
0
0
VERTEX
8
Fiber_Path_Minus1
10
0.670000
20
0.730000
30
0.0
70
0
0
VERTEX
8
Fiber_Path_Minus1
10
0.670001
20
0.730000
30
0.0
70
0
0
VERTEX
8
Fiber_Path_Minus1
10
0.690000
20
0.720139
30
0.0
70
0
0
VERTEX
8
Fiber_Path_Minus1
10
0.710000
20
0.712150
30
0.0
70
0
0
VERTEX
8
Fiber_Path_Minus1
10
0.730000
20
0.710102
30
0.0
70
0
0
VERTEX
8
Fiber_Path_Minus1
10
0.730225
20
0.710000
30
0.0
70
0
0
VERTEX
8
Fiber_Path_Minus1
10
0.750000
20
0.700162
30
0.0
70
0
0
VERTEX
8
Fiber_Path_Minus1
10
0.770000
20
0.692153
30
0.0
70
0
0
VERTEX
8
Fiber_Path_Minus1
10
0.773991
20
0.690000
30
0.0
70
0
0
VERTEX
8
Fiber_Path_Minus1
10
0.790000
20
0.680802
30
0.0
70
0
0
VERTEX
8
Fiber_Path_Minus1
10
0.810000
20
0.672262
30
0.0
70
0
0
VERTEX
8
Fiber_Path_Minus1
10
0.830000
20
0.670109
30
0.0
70
0
0
VERTEX
8
Fiber_Path_Minus1
10
0.830240
20
0.670000
30
0.0
70
0
0
VERTEX
8
Fiber_Path_Minus1
10
0.850000
20
0.660163
30
0.0
70
0
0
VERTEX
8
Fiber_Path_Minus1
10
0.870000
20
0.652153
30
0.0
70
0
0
VERTEX
8
Fiber_Path_Minus1
10
0.873991
20
0.650000
30
0.0
70
0
0
VERTEX
8
Fiber_Path_Minus1
10
0.890000
20
0.640802
30
0.0
70
0
0
VERTEX
8
Fiber_Path_Minus1
10
0.904501
20
0.630000
30
0.0
70
0
0
VERTEX
8
Fiber_Path_Minus1
10
0.910000
20
0.625347
30
0.0
70
0
0
VERTEX
8
Fiber_Path_Minus1
10
0.926569
20
0.610000
30
0.0
70
0
0
VERTEX
8
Fiber_Path_Minus1
10
0.930000
20
0.606569
30
0.0
70
0
0
VERTEX
8
Fiber_Path_Minus1
10
0.946569
20
0.590000
30
0.0
70
0
0
VERTEX
8
Fiber_Path_Minus1
10
0.950000
20
0.586569
30
0.0
70
0
0
VERTEX
8
Fiber_Path_Minus1
10
0.966569
20
0.570000
30
0.0
70
0
0
VERTEX
8
Fiber_Path_Minus1
10
0.970000
20
0.566569
30
0.0
70
0
0
VERTEX
8
Fiber_Path_Minus1
10
0.985223
20
0.550000
30
0.0
70
0
0
VERTEX
8
Fiber_Path_Minus1
10
0.990000
20
0.544242
30
0.0
70
0
0
VERTEX
8
Fiber_Path_Minus1
10
1.000139
20
0.530000
30
0.0
70
0
0
VERTEX
8
Fiber_Path_Minus1
10
1.010000
20
0.510000
30
0.0
70
0
0
VERTEX
8
Fiber_Path_Minus1
10
1.010000
20
0.490000
30
0.0
70
0
0
VERTEX
8
Fiber_Path_Minus1
10
1.000139
20
0.470000
30
0.0
70
0
0
VERTEX
8
Fiber_Path_Minus1
10
0.990000
20
0.455758
30
0.0
70
0
0
VERTEX
8
Fiber_Path_Minus1
10
0.985223
20
0.450000
30
0.0
70
0
0
VERTEX
8
Fiber_Path_Minus1
10
0.970000
20
0.433431
30
0.0
70
0
0
VERTEX
8
Fiber_Path_Minus1
10
0.966569
20
0.430000
30
0.0
70
0
0
VERTEX
8
Fiber_Path_Minus1
10
0.950000
20
0.413431
30
0.0
70
0
0
VERTEX
8
Fiber_Path_Minus1
10
0.946569
20
0.410000
30
0.0
70
0
0
VERTEX
8
Fiber_Path_Minus1
10
0.930000
20
0.393431
30
0.0
70
0
0
VERTEX
8
Fiber_Path_Minus1
10
0.926569
20
0.390000
30
0.0
70
0
0
VERTEX
8
Fiber_Path_Minus1
10
0.910000
20
0.374653
30
0.0
70
0
0
VERTEX
8
Fiber_Path_Minus1
10
0.904501
20
0.370000
30
0.0
70
0
0
VERTEX
8
Fiber_Path_Minus1
10
0.890000
20
0.359198
30
0.0
70
0
0
VERTEX
8
Fiber_Path_Minus1
10
0.873991
20
0.350000
30
0.0
70
0
0
VERTEX
8
Fiber_Path_Minus1
10
0.870000
20
0.347847
30
0.0
70
0
0
VERTEX
8
Fiber_Path_Minus1
10
0.850000
20
0.339837
30
0.0
70
0
0
VERTEX
8
Fiber_Path_Minus1
10
0.830240
20
0.330000
30
0.0
70
0
0
VERTEX
8
Fiber_Path_Minus1
10
0.830000
20
0.329891
30
0.0
70
0
0
VERTEX
8
Fiber_Path_Minus1
10
0.810000
20
0.327738
30
0.0
70
0
0
VERTEX
8
Fiber_Path_Minus1
10
0.790000
20
0.319198
30
0.0
70
0
0
VERTEX
8
Fiber_Path_Minus1
10
0.773991
20
0.310000
30
0.0
70
0
0
VERTEX
8
Fiber_Path_Minus1
10
0.770000
20
0.307847
30
0.0
70
0
0
VERTEX
8
Fiber_Path_Minus1
10
0.750000
20
0.299838
30
0.0
70
0
0
VERTEX
8
Fiber_Path_Minus1
10
0.730225
20
0.290000
30
0.0
70
0
0
VERTEX
8
Fiber_Path_Minus1
10
0.730000
20
0.289898
30
0.0
70
0
0
VERTEX
8
Fiber_Path_Minus1
10
0.710000
20
0.287850
30
0.0
70
0
0
VERTEX
8
Fiber_Path_Minus1
10
0.690000
20
0.279861
30
0.0
70
0
0
VERTEX
8
Fiber_Path_Minus1
10
0.670001
20
0.270000
30
0.0
70
0
0
VERTEX
8
Fiber_Path_Minus1
10
0.670000
20
0.270000
30
0.0
70
0
0
VERTEX
8
Fiber_Path_Minus1
10
0.650000
20
0.269898
30
0.0
70
0
0
VERTEX
8
Fiber_Path_Minus1
10
0.630000
20
0.267847
30
0.0
70
0
0
VERTEX
8
Fiber_Path_Minus1
10
0.610000
20
0.259838
30
0.0
70
0
0
VERTEX
8
Fiber_Path_Minus1
10
0.590226
20
0.250000
30
0.0
70
0
0
VERTEX
8
Fiber_Path_Minus1
10
0.590000
20
0.249898
30
0.0
70
0
0
VERTEX
8
Fiber_Path_Minus1
10
0.570000
20
0.247847
30
0.0
70
0
0
VERTEX
8
Fiber_Path_Minus1
10
0.550000
20
0.239838
30
0.0
70
0
0
VERTEX
8
Fiber_Path_Minus1
10
0.530225
20
0.230000
30
0.0
70
0
0
VERTEX
8
Fiber_Path_Minus1
10
0.530000
20
0.229898
30
0.0
70
0
0
VERTEX
8
Fiber_Path_Minus1
10
0.510000
20
0.227850
30
0.0
70
0
0
VERTEX
8
Fiber_Path_Minus1
10
0.490000
20
0.219861
30
0.0
70
0
0
VERTEX
8
Fiber_Path_Minus1
10
0.470001
20
0.210000
30
0.0
70
0
0
VERTEX
8
Fiber_Path_Minus1
10
0.470000
20
0.210000
30
0.0
70
0
0
VERTEX
8
Fiber_Path_Minus1
10
0.450000
20
0.209898
30
0.0
70
0
0
VERTEX
8
Fiber_Path_Minus1
10
0.430000
20
0.207847
30
0.0
70
0
0
VERTEX
8
Fiber_Path_Minus1
10
0.410000
20
0.199838
30
0.0
70
0
0
VERTEX
8
Fiber_Path_Minus1
10
0.390226
20
0.190000
30
0.0
70
0
0
VERTEX
8
Fiber_Path_Minus1
10
0.390000
20
0.189898
30
0.0
70
0
0
VERTEX
8
Fiber_Path_Minus1
10
0.370000
20
0.187847
30
0.0
70
0
0
VERTEX
8
Fiber_Path_Minus1
10
0.350000
20
0.179838
30
0.0
70
0
0
VERTEX
8
Fiber_Path_Minus1
10
0.330226
20
0.170000
30
0.0
70
0
0
VERTEX
8
Fiber_Path_Minus1
10
0.330000
20
0.169898
30
0.0
70
0
0
VERTEX
8
Fiber_Path_Minus1
10
0.310000
20
0.167847
30
0.0
70
0
0
VERTEX
8
Fiber_Path_Minus1
10
0.290000
20
0.159837
30
0.0
70
0
0
VERTEX
8
Fiber_Path_Minus1
10
0.270240
20
0.150000
30
0.0
70
0
0
VERTEX
8
Fiber_Path_Minus1
10
0.270000
20
0.149891
30
0.0
70
0
0
VERTEX
8
Fiber_Path_Minus1
10
0.250000
20
0.147738
30
0.0
70
0
0
VERTEX
8
Fiber_Path_Minus1
10
0.230000
20
0.139198
30
0.0
70
0
0
VERTEX
8
Fiber_Path_Minus1
10
0.213991
20
0.130000
30
0.0
70
0
0
VERTEX
8
Fiber_Path_Minus1
10
0.210000
20
0.127847
30
0.0
70
0
0
VERTEX
8
Fiber_Path_Minus1
10
0.190000
20
0.119837
30
0.0
70
0
0
VERTEX
8
Fiber_Path_Minus1
10
0.170240
20
0.110000
30
0.0
70
0
0
VERTEX
8
Fiber_Path_Minus1
10
0.190000
20
0.090000
30
0.0
70
0
0
VERTEX
8
Fiber_Path_Minus1
10
0.210000
20
0.090000
30
0.0
70
0
0
VERTEX
8
Fiber_Path_Minus1
10
0.230000
20
0.090000
30
0.0
70
0
0
VERTEX
8
Fiber_Path_Minus1
10
0.250000
20
0.090000
30
0.0
70
0
0
VERTEX
8
Fiber_Path_Minus1
10
0.270000
20
0.090000
30
0.0
70
0
0
VERTEX
8
Fiber_Path_Minus1
10
0.290000
20
0.090102
30
0.0
70
0
0
VERTEX
8
Fiber_Path_Minus1
10
0.310000
20
0.092150
30
0.0
70
0
0
VERTEX
8
Fiber_Path_Minus1
10
0.330000
20
0.100139
30
0.0
70
0
0
VERTEX
8
Fiber_Path_Minus1
10
0.349999
20
0.110000
30
0.0
70
0
0
VERTEX
8
Fiber_Path_Minus1
10
0.350000
20
0.110000
30
0.0
70
0
0
VERTEX
8
Fiber_Path_Minus1
10
0.370000
20
0.110102
30
0.0
70
0
0
VERTEX
8
Fiber_Path_Minus1
10
0.390000
20
0.112153
30
0.0
70
0
0
VERTEX
8
Fiber_Path_Minus1
10
0.410000
20
0.120162
30
0.0
70
0
0
VERTEX
8
Fiber_Path_Minus1
10
0.429775
20
0.130000
30
0.0
70
0
0
VERTEX
8
Fiber_Path_Minus1
10
0.430000
20
0.130102
30
0.0
70
0
0
VERTEX
8
Fiber_Path_Minus1
10
0.450000
20
0.132150
30
0.0
70
0
0
VERTEX
8
Fiber_Path_Minus1
10
0.470000
20
0.140139
30
0.0
70
0
0
VERTEX
8
Fiber_Path_Minus1
10
0.489999
20
0.150000
30
0.0
70
0
0
VERTEX
8
Fiber_Path_Minus1
10
0.490000
20
0.150000
30
0.0
70
0
0
VERTEX
8
Fiber_Path_Minus1
10
0.510000
20
0.150102
30
0.0
70
0
0
VERTEX
8
Fiber_Path_Minus1
10
0.530000
20
0.152153
30
0.0
70
0
0
VERTEX
8
Fiber_Path_Minus1
10
0.550000
20
0.160162
30
0.0
70
0
0
VERTEX
8
Fiber_Path_Minus1
10
0.569775
20
0.170000
30
0.0
70
0
0
VERTEX
8
Fiber_Path_Minus1
10
0.570000
20
0.170102
30
0.0
70
0
0
VERTEX
8
Fiber_Path_Minus1
10
0.590000
20
0.172150
30
0.0
70
0
0
VERTEX
8
Fiber_Path_Minus1
10
0.610000
20
0.180139
30
0.0
70
0
0
VERTEX
8
Fiber_Path_Minus1
10
0.629999
20
0.190000
30
0.0
70
0
0
VERTEX
8
Fiber_Path_Minus1
10
0.630000
20
0.190000
30
0.0
70
0
0
VERTEX
8
Fiber_Path_Minus1
10
0.650000
20
0.190102
30
0.0
70
0
0
VERTEX
8
Fiber_Path_Minus1
10
0.670000
20
0.192150
30
0.0
70
0
0
VERTEX
8
Fiber_Path_Minus1
10
0.690000
20
0.200139
30
0.0
70
0
0
VERTEX
8
Fiber_Path_Minus1
10
0.709999
20
0.210000
30
0.0
70
0
0
VERTEX
8
Fiber_Path_Minus1
10
0.710000
20
0.210000
30
0.0
70
0
0
VERTEX
8
Fiber_Path_Minus1
10
0.730000
20
0.210102
30
0.0
70
0
0
VERTEX
8
Fiber_Path_Minus1
10
0.750000
20
0.212150
30
0.0
70
0
0
VERTEX
8
Fiber_Path_Minus1
10
0.770000
20
0.220139
30
0.0
70
0
0
VERTEX
8
Fiber_Path_Minus1
10
0.789999
20
0.230000
30
0.0
70
0
0
VERTEX
8
Fiber_Path_Minus1
10
0.790000
20
0.230000
30
0.0
70
0
0
VERTEX
8
Fiber_Path_Minus1
10
0.810000
20
0.230102
30
0.0
70
0
0
VERTEX
8
Fiber_Path_Minus1
10
0.830000
20
0.232150
30
0.0
70
0
0
VERTEX
8
Fiber_Path_Minus1
10
0.850000
20
0.240139
30
0.0
70
0
0
VERTEX
8
Fiber_Path_Minus1
10
0.870000
20
0.250000
30
0.0
70
0
0
VERTEX
8
Fiber_Path_Minus1
10
0.870000
20
0.250000
30
0.0
70
0
0
VERTEX
8
Fiber_Path_Minus1
10
0.890000
20
0.250000
30
0.0
70
0
0
VERTEX
8
Fiber_Path_Minus1
10
0.910000
20
0.250102
30
0.0
70
0
0
VERTEX
8
Fiber_Path_Minus1
10
0.930000
20
0.252150
30
0.0
70
0
0
VERTEX
8
Fiber_Path_Minus1
10
0.950000
20
0.260139
30
0.0
70
0
0
VERTEX
8
Fiber_Path_Minus1
10
0.970000
20
0.270000
30
0.0
70
0
0
VERTEX
8
Fiber_Path_Minus1
10
0.990000
20
0.270000
30
0.0
70
0
0
VERTEX
8
Fiber_Path_Minus1
10
1.010000
20
0.270000
30
0.0
70
0
0
VERTEX
8
Fiber_Path_Minus1
10
1.030000
20
0.270102
30
0.0
70
0
0
VERTEX
8
Fiber_Path_Minus1
10
1.050000
20
0.272150
30
0.0
70
0
0
VERTEX
8
Fiber_Path_Minus1
10
1.070000
20
0.280139
30
0.0
70
0
0
VERTEX
8
Fiber_Path_Minus1
10
1.089999
20
0.290000
30
0.0
70
0
0
VERTEX
8
Fiber_Path_Minus1
10
1.090000
20
0.290000
30
0.0
70
0
0
VERTEX
8
Fiber_Path_Minus1
10
1.110000
20
0.290102
30
0.0
70
0
0
VERTEX
8
Fiber_Path_Minus1
10
1.130000
20
0.292150
30
0.0
70
0
0
VERTEX
8
Fiber_Path_Minus1
10
1.150000
20
0.300139
30
0.0
70
0
0
VERTEX
8
Fiber_Path_Minus1
10
1.169999
20
0.310000
30
0.0
70
0
0
VERTEX
8
Fiber_Path_Minus1
10
1.170000
20
0.310000
30
0.0
70
0
0
VERTEX
8
Fiber_Path_Minus1
10
1.190000
20
0.310102
30
0.0
70
0
0
VERTEX
8
Fiber_Path_Minus1
10
1.210000
20
0.312150
30
0.0
70
0
0
VERTEX
8
Fiber_Path_Minus1
10
1.230000
20
0.320139
30
0.0
70
0
0
VERTEX
8
Fiber_Path_Minus1
10
1.249999
20
0.330000
30
0.0
70
0
0
VERTEX
8
Fiber_Path_Minus1
10
1.250000
20
0.330000
30
0.0
70
0
0
VERTEX
8
Fiber_Path_Minus1
10
1.270000
20
0.330109
30
0.0
70
0
0
VERTEX
8
Fiber_Path_Minus1
10
1.290000
20
0.332262
30
0.0
70
0
0
VERTEX
8
Fiber_Path_Minus1
10
1.310000
20
0.340802
30
0.0
70
0
0
VERTEX
8
Fiber_Path_Minus1
10
1.326009
20
0.350000
30
0.0
70
0
0
VERTEX
8
Fiber_Path_Minus1
10
1.330000
20
0.352153
30
0.0
70
0
0
VERTEX
8
Fiber_Path_Minus1
10
1.350000
20
0.360163
30
0.0
70
0
0
VERTEX
8
Fiber_Path_Minus1
10
1.369760
20
0.370000
30
0.0
70
0
0
VERTEX
8
Fiber_Path_Minus1
10
1.370000
20
0.370109
30
0.0
70
0
0
VERTEX
8
Fiber_Path_Minus1
10
1.390000
20
0.372263
30
0.0
70
0
0
VERTEX
8
Fiber_Path_Minus1
10
1.410000
20
0.380819
30
0.0
70
0
0
VERTEX
8
Fiber_Path_Minus1
10
1.425879
20
0.390000
30
0.0
70
0
0
VERTEX
8
Fiber_Path_Minus1
10
1.430000
20
0.392273
30
0.0
70
0
0
VERTEX
8
Fiber_Path_Minus1
10
1.450000
20
0.400991
30
0.0
70
0
0
VERTEX
8
Fiber_Path_Minus1
10
1.464675
20
0.410000
30
0.0
70
0
0
VERTEX
8
Fiber_Path_Minus1
10
1.470000
20
0.413375
30
0.0
70
0
0
VERTEX
8
Fiber_Path_Minus1
10
1.490000
20
0.426569
30
0.0
70
0
0
VERTEX
8
Fiber_Path_Minus1
10
1.493431
20
0.430000
30
0.0
70
0
0
VERTEX
8
Fiber_Path_Minus1
10
1.506625
20
0.450000
30
0.0
70
0
0
VERTEX
8
Fiber_Path_Minus1
10
1.509812
20
0.470000
30
0.0
70
0
0
VERTEX
8
Fiber_Path_Minus1
10
1.509999
20
0.490000
30
0.0
70
0
0
VERTEX
8
Fiber_Path_Minus1
10
1.509999
20
0.510000
30
0.0
70
0
0
VERTEX
8
Fiber_Path_Minus1
10
1.509812
20
0.530000
30
0.0
70
0
0
VERTEX
8
Fiber_Path_Minus1
10
1.506625
20
0.550000
30
0.0
70
0
0
VERTEX
8
Fiber_Path_Minus1
10
1.493431
20
0.570000
30
0.0
70
0
0
VERTEX
8
Fiber_Path_Minus1
10
1.490000
20
0.573431
30
0.0
70
0
0
SEQEND
8
Fiber_Path_Minus1
0
POLYLINE
8
Fiber_Path_Minus2
66
1
70
0
10
0.0
20
0.0
30
0.0
0
VERTEX
8
Fiber_Path_Minus2
10
0.010000
20
0.056349
30
0.0
70
0
0
VERTEX
8
Fiber_Path_Minus2
10
0.016580
20
0.050000
30
0.0
70
0
0
VERTEX
8
Fiber_Path_Minus2
10
0.010000
20
0.045305
30
0.0
70
0
0
SEQEND
8
Fiber_Path_Minus2
0
POLYLINE
8
Fiber_Path_Minus2
66
1
70
0
10
0.0
20
0.0
30
0.0
0
VERTEX
8
Fiber_Path_Minus2
10
0.090000
20
0.941716
30
0.0
70
0
0
VERTEX
8
Fiber_Path_Minus2
10
0.110000
20
0.949238
30
0.0
70
0
0
VERTEX
8
Fiber_Path_Minus2
10
0.130000
20
0.949989
30
0.0
70
0
0
VERTEX
8
Fiber_Path_Minus2
10
0.150000
20
0.950000
30
0.0
70
0
0
VERTEX
8
Fiber_Path_Minus2
10
0.170000
20
0.950000
30
0.0
70
0
0
VERTEX
8
Fiber_Path_Minus2
10
0.190000
20
0.950000
30
0.0
70
0
0
VERTEX
8
Fiber_Path_Minus2
10
0.210000
20
0.950000
30
0.0
70
0
0
VERTEX
8
Fiber_Path_Minus2
10
0.230000
20
0.950000
30
0.0
70
0
0
VERTEX
8
Fiber_Path_Minus2
10
0.250000
20
0.950000
30
0.0
70
0
0
VERTEX
8
Fiber_Path_Minus2
10
0.270000
20
0.949989
30
0.0
70
0
0
VERTEX
8
Fiber_Path_Minus2
10
0.290000
20
0.949271
30
0.0
70
0
0
VERTEX
8
Fiber_Path_Minus2
10
0.310000
20
0.943010
30
0.0
70
0
0
VERTEX
8
Fiber_Path_Minus2
10
0.329979
20
0.930000
30
0.0
70
0
0
VERTEX
8
Fiber_Path_Minus2
10
0.330000
20
0.929989
30
0.0
70
0
0
VERTEX
8
Fiber_Path_Minus2
10
0.350000
20
0.916266
30
0.0
70
0
0
VERTEX
8
Fiber_Path_Minus2
10
0.370000
20
0.914750
30
0.0
70
0
0
VERTEX
8
Fiber_Path_Minus2
10
0.388795
20
0.910000
30
0.0
70
0
0
VERTEX
8
Fiber_Path_Minus2
10
0.390000
20
0.909271
30
0.0
70
0
0
VERTEX
8
Fiber_Path_Minus2
10
0.410000
20
0.903010
30
0.0
70
0
0
VERTEX
8
Fiber_Path_Minus2
10
0.429979
20
0.890000
30
0.0
70
0
0
VERTEX
8
Fiber_Path_Minus2
10
0.430000
20
0.889989
30
0.0
70
0
0
VERTEX
8
Fiber_Path_Minus2
10
0.450000
20
0.889271
30
0.0
70
0
0
VERTEX
8
Fiber_Path_Minus2
10
0.470000
20
0.883012
30
0.0
70
0
0
VERTEX
8
Fiber_Path_Minus2
10
0.490000
20
0.870000
30
0.0
70
0
0
VERTEX
8
Fiber_Path_Minus2
10
0.490000
20
0.870000
30
0.0
70
0
0
VERTEX
8
Fiber_Path_Minus2
10
0.510000
20
0.869989
30
0.0
70
0
0
VERTEX
8
Fiber_Path_Minus2
10
0.530000
20
0.869271
30
0.0
70
0
0
VERTEX
8
Fiber_Path_Minus2
10
0.550000
20
0.863010
30
0.0
70
0
0
VERTEX
8
Fiber_Path_Minus2
10
0.569979
20
0.850000
30
0.0
70
0
0
VERTEX
8
Fiber_Path_Minus2
10
0.570000
20
0.849989
30
0.0
70
0
0
VERTEX
8
Fiber_Path_Minus2
10
0.590000
20
0.849271
30
0.0
70
0
0
VERTEX
8
Fiber_Path_Minus2
10
0.610000
20
0.843012
30
0.0
70
0
0
VERTEX
8
Fiber_Path_Minus2
10
0.630000
20
0.830000
30
0.0
70
0
0
VERTEX
8
Fiber_Path_Minus2
10
0.630000
20
0.830000
30
0.0
70
0
0
VERTEX
8
Fiber_Path_Minus2
10
0.650000
20
0.829989
30
0.0
70
0
0
VERTEX
8
Fiber_Path_Minus2
10
0.670000
20
0.829271
30
0.0
70
0
0
VERTEX
8
Fiber_Path_Minus2
10
0.690000
20
0.823012
30
0.0
70
0
0
VERTEX
8
Fiber_Path_Minus2
10
0.710000
20
0.810000
30
0.0
70
0
0
VERTEX
8
Fiber_Path_Minus2
10
0.710000
20
0.810000
30
0.0
70
0
0
VERTEX
8
Fiber_Path_Minus2
10
0.730000
20
0.809989
30
0.0
70
0
0
VERTEX
8
Fiber_Path_Minus2
10
0.750000
20
0.809271
30
0.0
70
0
0
VERTEX
8
Fiber_Path_Minus2
10
0.770000
20
0.803012
30
0.0
70
0
0
VERTEX
8
Fiber_Path_Minus2
10
0.790000
20
0.790000
30
0.0
70
0
0
VERTEX
8
Fiber_Path_Minus2
10
0.790000
20
0.790000
30
0.0
70
0
0
VERTEX
8
Fiber_Path_Minus2
10
0.810000
20
0.789989
30
0.0
70
0
0
VERTEX
8
Fiber_Path_Minus2
10
0.830000
20
0.789271
30
0.0
70
0
0
VERTEX
8
Fiber_Path_Minus2
10
0.850000
20
0.783012
30
0.0
70
0
0
VERTEX
8
Fiber_Path_Minus2
10
0.870000
20
0.770000
30
0.0
70
0
0
VERTEX
8
Fiber_Path_Minus2
10
0.870000
20
0.770000
30
0.0
70
0
0
VERTEX
8
Fiber_Path_Minus2
10
0.890000
20
0.770000
30
0.0
70
0
0
VERTEX
8
Fiber_Path_Minus2
10
0.910000
20
0.769989
30
0.0
70
0
0
VERTEX
8
Fiber_Path_Minus2
10
0.930000
20
0.769271
30
0.0
70
0
0
VERTEX
8
Fiber_Path_Minus2
10
0.950000
20
0.763012
30
0.0
70
0
0
VERTEX
8
Fiber_Path_Minus2
10
0.970000
20
0.750000
30
0.0
70
0
0
VERTEX
8
Fiber_Path_Minus2
10
0.990000
20
0.750000
30
0.0
70
0
0
VERTEX
8
Fiber_Path_Minus2
10
1.010000
20
0.750000
30
0.0
70
0
0
VERTEX
8
Fiber_Path_Minus2
10
1.030000
20
0.749989
30
0.0
70
0
0
VERTEX
8
Fiber_Path_Minus2
10
1.050000
20
0.749271
30
0.0
70
0
0
VERTEX
8
Fiber_Path_Minus2
10
1.070000
20
0.743012
30
0.0
70
0
0
VERTEX
8
Fiber_Path_Minus2
10
1.090000
20
0.730000
30
0.0
70
0
0
VERTEX
8
Fiber_Path_Minus2
10
1.090000
20
0.730000
30
0.0
70
0
0
VERTEX
8
Fiber_Path_Minus2
10
1.110000
20
0.729989
30
0.0
70
0
0
VERTEX
8
Fiber_Path_Minus2
10
1.130000
20
0.729271
30
0.0
70
0
0
VERTEX
8
Fiber_Path_Minus2
10
1.150000
20
0.723012
30
0.0
70
0
0
VERTEX
8
Fiber_Path_Minus2
10
1.170000
20
0.710000
30
0.0
70
0
0
VERTEX
8
Fiber_Path_Minus2
10
1.170000
20
0.710000
30
0.0
70
0
0
VERTEX
8
Fiber_Path_Minus2
10
1.190000
20
0.709989
30
0.0
70
0
0
VERTEX
8
Fiber_Path_Minus2
10
1.210000
20
0.709271
30
0.0
70
0
0
VERTEX
8
Fiber_Path_Minus2
10
1.230000
20
0.703012
30
0.0
70
0
0
VERTEX
8
Fiber_Path_Minus2
10
1.250000
20
0.690000
30
0.0
70
0
0
VERTEX
8
Fiber_Path_Minus2
10
1.250000
20
0.690000
30
0.0
70
0
0
VERTEX
8
Fiber_Path_Minus2
10
1.270000
20
0.689989
30
0.0
70
0
0
VERTEX
8
Fiber_Path_Minus2
10
1.290000
20
0.689268
30
0.0
70
0
0
VERTEX
8
Fiber_Path_Minus2
10
1.310000
20
0.682896
30
0.0
70
0
0
VERTEX
8
Fiber_Path_Minus2
10
1.328795
20
0.670000
30
0.0
70
0
0
VERTEX
8
Fiber_Path_Minus2
10
1.330000
20
0.669271
30
0.0
70
0
0
VERTEX
8
Fiber_Path_Minus2
10
1.350000
20
0.663010
30
0.0
70
0
0
VERTEX
8
Fiber_Path_Minus2
10
1.369979
20
0.650000
30
0.0
70
0
0
VERTEX
8
Fiber_Path_Minus2
10
1.370000
20
0.649989
30
0.0
70
0
0
VERTEX
8
Fiber_Path_Minus2
10
1.390000
20
0.649268
30
0.0
70
0
0
VERTEX
8
Fiber_Path_Minus2
10
1.410000
20
0.642896
30
0.0
70
0
0
VERTEX
8
Fiber_Path_Minus2
10
1.428795
20
0.630000
30
0.0
70
0
0
VERTEX
8
Fiber_Path_Minus2
10
1.430000
20
0.629268
30
0.0
70
0
0
VERTEX
8
Fiber_Path_Minus2
10
1.450000
20
0.622896
30
0.0
70
0
0
VERTEX
8
Fiber_Path_Minus2
10
1.468795
20
0.610000
30
0.0
70
0
0
VERTEX
8
Fiber_Path_Minus2
10
1.470000
20
0.609238
30
0.0
70
0
0
VERTEX
8
Fiber_Path_Minus2
10
1.490000
20
0.601716
30
0.0
70
0
0
VERTEX
8
Fiber_Path_Minus2
10
1.501716
20
0.590000
30
0.0
70
0
0
VERTEX
8
Fiber_Path_Minus2
10
1.510000
20
0.581716
30
0.0
70
0
0
VERTEX
8
Fiber_Path_Minus2
10
1.521716
20
0.570000
30
0.0
70
0
0
VERTEX
8
Fiber_Path_Minus2
10
1.529238
20
0.550000
30
0.0
70
0
0
VERTEX
8
Fiber_Path_Minus2
10
1.529989
20
0.530000
30
0.0
70
0
0
VERTEX
8
Fiber_Path_Minus2
10
1.530000
20
0.510000
30
0.0
70
0
0
VERTEX
8
Fiber_Path_Minus2
10
1.530000
20
0.490000
30
0.0
70
0
0
VERTEX
8
Fiber_Path_Minus2
10
1.529989
20
0.470000
30
0.0
70
0
0
VERTEX
8
Fiber_Path_Minus2
10
1.529238
20
0.450000
30
0.0
70
0
0
VERTEX
8
Fiber_Path_Minus2
10
1.521716
20
0.430000
30
0.0
70
0
0
VERTEX
8
Fiber_Path_Minus2
10
1.510000
20
0.418284
30
0.0
70
0
0
VERTEX
8
Fiber_Path_Minus2
10
1.501716
20
0.410000
30
0.0
70
0
0
VERTEX
8
Fiber_Path_Minus2
10
1.490000
20
0.398284
30
0.0
70
0
0
VERTEX
8
Fiber_Path_Minus2
10
1.470000
20
0.390762
30
0.0
70
0
0
VERTEX
8
Fiber_Path_Minus2
10
1.468795
20
0.390000
30
0.0
70
0
0
VERTEX
8
Fiber_Path_Minus2
10
1.450000
20
0.377104
30
0.0
70
0
0
VERTEX
8
Fiber_Path_Minus2
10
1.430000
20
0.370732
30
0.0
70
0
0
VERTEX
8
Fiber_Path_Minus2
10
1.428795
20
0.370000
30
0.0
70
0
0
VERTEX
8
Fiber_Path_Minus2
10
1.410000
20
0.357104
30
0.0
70
0
0
VERTEX
8
Fiber_Path_Minus2
10
1.390000
20
0.350732
30
0.0
70
0
0
VERTEX
8
Fiber_Path_Minus2
10
1.370000
20
0.350011
30
0.0
70
0
0
VERTEX
8
Fiber_Path_Minus2
10
1.369979
20
0.350000
30
0.0
70
0
0
VERTEX
8
Fiber_Path_Minus2
10
1.350000
20
0.336990
30
0.0
70
0
0
VERTEX
8
Fiber_Path_Minus2
10
1.330000
20
0.330729
30
0.0
70
0
0
VERTEX
8
Fiber_Path_Minus2
10
1.328795
20
0.330000
30
0.0
70
0
0
VERTEX
8
Fiber_Path_Minus2
10
1.310000
20
0.317104
30
0.0
70
0
0
VERTEX
8
Fiber_Path_Minus2
10
1.290000
20
0.310732
30
0.0
70
0
0
VERTEX
8
Fiber_Path_Minus2
10
1.270000
20
0.310011
30
0.0
70
0
0
VERTEX
8
Fiber_Path_Minus2
10
1.250000
20
0.310000
30
0.0
70
0
0
VERTEX
8
Fiber_Path_Minus2
10
1.250000
20
0.310000
30
0.0
70
0
0
VERTEX
8
Fiber_Path_Minus2
10
1.230000
20
0.296988
30
0.0
70
0
0
VERTEX
8
Fiber_Path_Minus2
10
1.210000
20
0.290729
30
0.0
70
0
0
VERTEX
8
Fiber_Path_Minus2
10
1.190000
20
0.290011
30
0.0
70
0
0
VERTEX
8
Fiber_Path_Minus2
10
1.170000
20
0.290000
30
0.0
70
0
0
VERTEX
8
Fiber_Path_Minus2
10
1.170000
20
0.290000
30
0.0
70
0
0
VERTEX
8
Fiber_Path_Minus2
10
1.150000
20
0.276988
30
0.0
70
0
0
VERTEX
8
Fiber_Path_Minus2
10
1.130000
20
0.270729
30
0.0
70
0
0
VERTEX
8
Fiber_Path_Minus2
10
1.110000
20
0.270011
30
0.0
70
0
0
VERTEX
8
Fiber_Path_Minus2
10
1.090000
20
0.270000
30
0.0
70
0
0
VERTEX
8
Fiber_Path_Minus2
10
1.090000
20
0.270000
30
0.0
70
0
0
VERTEX
8
Fiber_Path_Minus2
10
1.070000
20
0.256988
30
0.0
70
0
0
VERTEX
8
Fiber_Path_Minus2
10
1.050000
20
0.250729
30
0.0
70
0
0
VERTEX
8
Fiber_Path_Minus2
10
1.030000
20
0.250011
30
0.0
70
0
0
VERTEX
8
Fiber_Path_Minus2
10
1.010000
20
0.250000
30
0.0
70
0
0
VERTEX
8
Fiber_Path_Minus2
10
0.990000
20
0.250000
30
0.0
70
0
0
VERTEX
8
Fiber_Path_Minus2
10
0.970000
20
0.250000
30
0.0
70
0
0
VERTEX
8
Fiber_Path_Minus2
10
0.950000
20
0.236988
30
0.0
70
0
0
VERTEX
8
Fiber_Path_Minus2
10
0.930000
20
0.230729
30
0.0
70
0
0
VERTEX
8
Fiber_Path_Minus2
10
0.910000
20
0.230011
30
0.0
70
0
0
VERTEX
8
Fiber_Path_Minus2
10
0.890000
20
0.230000
30
0.0
70
0
0
VERTEX
8
Fiber_Path_Minus2
10
0.870000
20
0.230000
30
0.0
70
0
0
VERTEX
8
Fiber_Path_Minus2
10
0.870000
20
0.230000
30
0.0
70
0
0
VERTEX
8
Fiber_Path_Minus2
10
0.850000
20
0.216988
30
0.0
70
0
0
VERTEX
8
Fiber_Path_Minus2
10
0.830000
20
0.210729
30
0.0
70
0
0
VERTEX
8
Fiber_Path_Minus2
10
0.810000
20
0.210011
30
0.0
70
0
0
VERTEX
8
Fiber_Path_Minus2
10
0.790000
20
0.210000
30
0.0
70
0
0
VERTEX
8
Fiber_Path_Minus2
10
0.790000
20
0.210000
30
0.0
70
0
0
VERTEX
8
Fiber_Path_Minus2
10
0.770000
20
0.196988
30
0.0
70
0
0
VERTEX
8
Fiber_Path_Minus2
10
0.750000
20
0.190729
30
0.0
70
0
0
VERTEX
8
Fiber_Path_Minus2
10
0.730000
20
0.190011
30
0.0
70
0
0
VERTEX
8
Fiber_Path_Minus2
10
0.710000
20
0.190000
30
0.0
70
0
0
VERTEX
8
Fiber_Path_Minus2
10
0.710000
20
0.190000
30
0.0
70
0
0
VERTEX
8
Fiber_Path_Minus2
10
0.690000
20
0.176988
30
0.0
70
0
0
VERTEX
8
Fiber_Path_Minus2
10
0.670000
20
0.170729
30
0.0
70
0
0
VERTEX
8
Fiber_Path_Minus2
10
0.650000
20
0.170011
30
0.0
70
0
0
VERTEX
8
Fiber_Path_Minus2
10
0.630000
20
0.170000
30
0.0
70
0
0
VERTEX
8
Fiber_Path_Minus2
10
0.630000
20
0.170000
30
0.0
70
0
0
VERTEX
8
Fiber_Path_Minus2
10
0.610000
20
0.156988
30
0.0
70
0
0
VERTEX
8
Fiber_Path_Minus2
10
0.590000
20
0.150729
30
0.0
70
0
0
VERTEX
8
Fiber_Path_Minus2
10
0.570000
20
0.150011
30
0.0
70
0
0
VERTEX
8
Fiber_Path_Minus2
10
0.569979
20
0.150000
30
0.0
70
0
0
VERTEX
8
Fiber_Path_Minus2
10
0.550000
20
0.136990
30
0.0
70
0
0
VERTEX
8
Fiber_Path_Minus2
10
0.530000
20
0.130729
30
0.0
70
0
0
VERTEX
8
Fiber_Path_Minus2
10
0.510000
20
0.130011
30
0.0
70
0
0
VERTEX
8
Fiber_Path_Minus2
10
0.490000
20
0.130000
30
0.0
70
0
0
VERTEX
8
Fiber_Path_Minus2
10
0.490000
20
0.130000
30
0.0
70
0
0
VERTEX
8
Fiber_Path_Minus2
10
0.470000
20
0.116988
30
0.0
70
0
0
VERTEX
8
Fiber_Path_Minus2
10
0.450000
20
0.110729
30
0.0
70
0
0
VERTEX
8
Fiber_Path_Minus2
10
0.430000
20
0.110011
30
0.0
70
0
0
VERTEX
8
Fiber_Path_Minus2
10
0.429979
20
0.110000
30
0.0
70
0
0
VERTEX
8
Fiber_Path_Minus2
10
0.410000
20
0.096990
30
0.0
70
0
0
VERTEX
8
Fiber_Path_Minus2
10
0.390000
20
0.090729
30
0.0
70
0
0
VERTEX
8
Fiber_Path_Minus2
10
0.370000
20
0.090011
30
0.0
70
0
0
VERTEX
8
Fiber_Path_Minus2
10
0.350000
20
0.090000
30
0.0
70
0
0
VERTEX
8
Fiber_Path_Minus2
10
0.350000
20
0.090000
30
0.0
70
0
0
VERTEX
8
Fiber_Path_Minus2
10
0.330000
20
0.076988
30
0.0
70
0
0
VERTEX
8
Fiber_Path_Minus2
10
0.310000
20
0.070729
30
0.0
70
0
0
VERTEX
8
Fiber_Path_Minus2
10
0.290000
20
0.070011
30
0.0
70
0
0
VERTEX
8
Fiber_Path_Minus2
10
0.270000
20
0.070000
30
0.0
70
0
0
VERTEX
8
Fiber_Path_Minus2
10
0.250000
20
0.070000
30
0.0
70
0
0
VERTEX
8
Fiber_Path_Minus2
10
0.230000
20
0.070000
30
0.0
70
0
0
VERTEX
8
Fiber_Path_Minus2
10
0.210000
20
0.070000
30
0.0
70
0
0
VERTEX
8
Fiber_Path_Minus2
10
0.190000
20
0.070000
30
0.0
70
0
0
VERTEX
8
Fiber_Path_Minus2
10
0.170000
20
0.070000
30
0.0
70
0
0
VERTEX
8
Fiber_Path_Minus2
10
0.150000
20
0.070011
30
0.0
70
0
0
VERTEX
8
Fiber_Path_Minus2
10
0.130000
20
0.070762
30
0.0
70
0
0
VERTEX
8
Fiber_Path_Minus2
10
0.110000
20
0.078284
30
0.0
70
0
0
VERTEX
8
Fiber_Path_Minus2
10
0.106095
20
0.090000
30
0.0
70
0
0
VERTEX
8
Fiber_Path_Minus2
10
0.110000
20
0.108480
30
0.0
70
0
0
VERTEX
8
Fiber_Path_Minus2
10
0.111205
20
0.110000
30
0.0
70
0
0
VERTEX
8
Fiber_Path_Minus2
10
0.130000
20
0.122896
30
0.0
70
0
0
VERTEX
8
Fiber_Path_Minus2
10
0.150000
20
0.129268
30
0.0
70
0
0
VERTEX
8
Fiber_Path_Minus2
10
0.170000
20
0.129989
30
0.0
70
0
0
VERTEX
8
Fiber_Path_Minus2
10
0.170021
20
0.130000
30
0.0
70
0
0
VERTEX
8
Fiber_Path_Minus2
10
0.190000
20
0.143010
30
0.0
70
0
0
VERTEX
8
Fiber_Path_Minus2
10
0.210000
20
0.149271
30
0.0
70
0
0
VERTEX
8
Fiber_Path_Minus2
10
0.211205
20
0.150000
30
0.0
70
0
0
VERTEX
8
Fiber_Path_Minus2
10
0.230000
20
0.162896
30
0.0
70
0
0
VERTEX
8
Fiber_Path_Minus2
10
0.250000
20
0.169268
30
0.0
70
0
0
VERTEX
8
Fiber_Path_Minus2
10
0.270000
20
0.169989
30
0.0
70
0
0
VERTEX
8
Fiber_Path_Minus2
10
0.270021
20
0.170000
30
0.0
70
0
0
VERTEX
8
Fiber_Path_Minus2
10
0.290000
20
0.183010
30
0.0
70
0
0
VERTEX
8
Fiber_Path_Minus2
10
0.310000
20
0.189271
30
0.0
70
0
0
VERTEX
8
Fiber_Path_Minus2
10
0.330000
20
0.189989
30
0.0
70
0
0
VERTEX
8
Fiber_Path_Minus2
10
0.330021
20
0.190000
30
0.0
70
0
0
VERTEX
8
Fiber_Path_Minus2
10
0.350000
20
0.203010
30
0.0
70
0
0
VERTEX
8
Fiber_Path_Minus2
10
0.370000
20
0.209271
30
0.0
70
0
0
VERTEX
8
Fiber_Path_Minus2
10
0.390000
20
0.209989
30
0.0
70
0
0
VERTEX
8
Fiber_Path_Minus2
10
0.390021
20
0.210000
30
0.0
70
0
0
VERTEX
8
Fiber_Path_Minus2
10
0.410000
20
0.223010
30
0.0
70
0
0
VERTEX
8
Fiber_Path_Minus2
10
0.430000
20
0.229271
30
0.0
70
0
0
VERTEX
8
Fiber_Path_Minus2
10
0.450000
20
0.229989
30
0.0
70
0
0
VERTEX
8
Fiber_Path_Minus2
10
0.470000
20
0.230000
30
0.0
70
0
0
VERTEX
8
Fiber_Path_Minus2
10
0.470000
20
0.230000
30
0.0
70
0
0
VERTEX
8
Fiber_Path_Minus2
10
0.490000
20
0.243012
30
0.0
70
0
0
VERTEX
8
Fiber_Path_Minus2
10
0.510000
20
0.249271
30
0.0
70
0
0
VERTEX
8
Fiber_Path_Minus2
10
0.530000
20
0.249989
30
0.0
70
0
0
VERTEX
8
Fiber_Path_Minus2
10
0.530021
20
0.250000
30
0.0
70
0
0
VERTEX
8
Fiber_Path_Minus2
10
0.550000
20
0.263010
30
0.0
70
0
0
VERTEX
8
Fiber_Path_Minus2
10
0.570000
20
0.269271
30
0.0
70
0
0
VERTEX
8
Fiber_Path_Minus2
10
0.590000
20
0.269989
30
0.0
70
0
0
VERTEX
8
Fiber_Path_Minus2
10
0.590021
20
0.270000
30
0.0
70
0
0
VERTEX
8
Fiber_Path_Minus2
10
0.610000
20
0.283010
30
0.0
70
0
0
VERTEX
8
Fiber_Path_Minus2
10
0.630000
20
0.289271
30
0.0
70
0
0
VERTEX
8
Fiber_Path_Minus2
10
0.650000
20
0.289989
30
0.0
70
0
0
VERTEX
8
Fiber_Path_Minus2
10
0.670000
20
0.290000
30
0.0
70
0
0
VERTEX
8
Fiber_Path_Minus2
10
0.670000
20
0.290000
30
0.0
70
0
0
VERTEX
8
Fiber_Path_Minus2
10
0.690000
20
0.303012
30
0.0
70
0
0
VERTEX
8
Fiber_Path_Minus2
10
0.710000
20
0.309271
30
0.0
70
0
0
VERTEX
8
Fiber_Path_Minus2
10
0.730000
20
0.309989
30
0.0
70
0
0
VERTEX
8
Fiber_Path_Minus2
10
0.730021
20
0.310000
30
0.0
70
0
0
VERTEX
8
Fiber_Path_Minus2
10
0.750000
20
0.323010
30
0.0
70
0
0
VERTEX
8
Fiber_Path_Minus2
10
0.770000
20
0.329271
30
0.0
70
0
0
VERTEX
8
Fiber_Path_Minus2
10
0.771205
20
0.330000
30
0.0
70
0
0
VERTEX
8
Fiber_Path_Minus2
10
0.790000
20
0.342896
30
0.0
70
0
0
VERTEX
8
Fiber_Path_Minus2
10
0.810000
20
0.349268
30
0.0
70
0
0
VERTEX
8
Fiber_Path_Minus2
10
0.830000
20
0.349989
30
0.0
70
0
0
VERTEX
8
Fiber_Path_Minus2
10
0.830021
20
0.350000
30
0.0
70
0
0
VERTEX
8
Fiber_Path_Minus2
10
0.850000
20
0.363010
30
0.0
70
0
0
VERTEX
8
Fiber_Path_Minus2
10
0.870000
20
0.369271
30
0.0
70
0
0
VERTEX
8
Fiber_Path_Minus2
10
0.871205
20
0.370000
30
0.0
70
0
0
VERTEX
8
Fiber_Path_Minus2
10
0.890000
20
0.382896
30
0.0
70
0
0
VERTEX
8
Fiber_Path_Minus2
10
0.898284
20
0.390000
30
0.0
70
0
0
VERTEX
8
Fiber_Path_Minus2
10
0.910000
20
0.401716
30
0.0
70
0
0
VERTEX
8
Fiber_Path_Minus2
10
0.918284
20
0.410000
30
0.0
70
0
0
VERTEX
8
Fiber_Path_Minus2
10
0.930000
20
0.413905
30
0.0
70
0
0
VERTEX
8
Fiber_Path_Minus2
10
0.946095
20
0.430000
30
0.0
70
0
0
VERTEX
8
Fiber_Path_Minus2
10
0.950000
20
0.433905
30
0.0
70
0
0
VERTEX
8
Fiber_Path_Minus2
10
0.966095
20
0.450000
30
0.0
70
0
0
VERTEX
8
Fiber_Path_Minus2
10
0.970000
20
0.453905
30
0.0
70
0
0
VERTEX
8
Fiber_Path_Minus2
10
0.985158
20
0.470000
30
0.0
70
0
0
VERTEX
8
Fiber_Path_Minus2
10
0.990000
20
0.474285
30
0.0
70
0
0
VERTEX
8
Fiber_Path_Minus2
10
1.003333
20
0.490000
30
0.0
70
0
0
VERTEX
8
Fiber_Path_Minus2
10
1.003333
20
0.510000
30
0.0
70
0
0
VERTEX
8
Fiber_Path_Minus2
10
0.990000
20
0.525715
30
0.0
70
0
0
VERTEX
8
Fiber_Path_Minus2
10
0.985158
20
0.530000
30
0.0
70
0
0
VERTEX
8
Fiber_Path_Minus2
10
0.970000
20
0.546095
30
0.0
70
0
0
VERTEX
8
Fiber_Path_Minus2
10
0.966095
20
0.550000
30
0.0
70
0
0
VERTEX
8
Fiber_Path_Minus2
10
0.950000
20
0.566095
30
0.0
70
0
0
VERTEX
8
Fiber_Path_Minus2
10
0.946095
20
0.570000
30
0.0
70
0
0
VERTEX
8
Fiber_Path_Minus2
10
0.930000
20
0.586095
30
0.0
70
0
0
VERTEX
8
Fiber_Path_Minus2
10
0.918284
20
0.590000
30
0.0
70
0
0
VERTEX
8
Fiber_Path_Minus2
10
0.910000
20
0.598284
30
0.0
70
0
0
VERTEX
8
Fiber_Path_Minus2
10
0.898284
20
0.610000
30
0.0
70
0
0
VERTEX
8
Fiber_Path_Minus2
10
0.890000
20
0.617104
30
0.0
70
0
0
VERTEX
8
Fiber_Path_Minus2
10
0.871205
20
0.630000
30
0.0
70
0
0
VERTEX
8
Fiber_Path_Minus2
10
0.870000
20
0.630729
30
0.0
70
0
0
VERTEX
8
Fiber_Path_Minus2
10
0.850000
20
0.636990
30
0.0
70
0
0
VERTEX
8
Fiber_Path_Minus2
10
0.830021
20
0.650000
30
0.0
70
0
0
VERTEX
8
Fiber_Path_Minus2
10
0.830000
20
0.650011
30
0.0
70
0
0
VERTEX
8
Fiber_Path_Minus2
10
0.810000
20
0.650732
30
0.0
70
0
0
VERTEX
8
Fiber_Path_Minus2
10
0.790000
20
0.657104
30
0.0
70
0
0
VERTEX
8
Fiber_Path_Minus2
10
0.771205
20
0.670000
30
0.0
70
0
0
VERTEX
8
Fiber_Path_Minus2
10
0.770000
20
0.670729
30
0.0
70
0
0
VERTEX
8
Fiber_Path_Minus2
10
0.750000
20
0.676990
30
0.0
70
0
0
VERTEX
8
Fiber_Path_Minus2
10
0.730021
20
0.690000
30
0.0
70
0
0
VERTEX
8
Fiber_Path_Minus2
10
0.730000
20
0.690011
30
0.0
70
0
0
VERTEX
8
Fiber_Path_Minus2
10
0.710000
20
0.690729
30
0.0
70
0
0
VERTEX
8
Fiber_Path_Minus2
10
0.690000
20
0.696988
30
0.0
70
0
0
VERTEX
8
Fiber_Path_Minus2
10
0.670000
20
0.710000
30
0.0
70
0
0
VERTEX
8
Fiber_Path_Minus2
10
0.670000
20
0.710000
30
0.0
70
0
0
VERTEX
8
Fiber_Path_Minus2
10
0.650000
20
0.710011
30
0.0
70
0
0
VERTEX
8
Fiber_Path_Minus2
10
0.630000
20
0.710729
30
0.0
70
0
0
VERTEX
8
Fiber_Path_Minus2
10
0.610000
20
0.716990
30
0.0
70
0
0
VERTEX
8
Fiber_Path_Minus2
10
0.590021
20
0.730000
30
0.0
70
0
0
VERTEX
8
Fiber_Path_Minus2
10
0.590000
20
0.730011
30
0.0
70
0
0
VERTEX
8
Fiber_Path_Minus2
10
0.570000
20
0.730732
30
0.0
70
0
0
VERTEX
8
Fiber_Path_Minus2
10
0.550000
20
0.737104
30
0.0
70
0
0
VERTEX
8
Fiber_Path_Minus2
10
0.531205
20
0.750000
30
0.0
70
0
0
VERTEX
8
Fiber_Path_Minus2
10
0.530000
20
0.750729
30
0.0
70
0
0
VERTEX
8
Fiber_Path_Minus2
10
0.510000
20
0.756988
30
0.0
70
0
0
VERTEX
8
Fiber_Path_Minus2
10
0.490000
20
0.770000
30
0.0
70
0
0
VERTEX
8
Fiber_Path_Minus2
10
0.490000
20
0.770000
30
0.0
70
0
0
VERTEX
8
Fiber_Path_Minus2
10
0.470000
20
0.770000
30
0.0
70
0
0
VERTEX
8
Fiber_Path_Minus2
10
0.450000
20
0.770011
30
0.0
70
0
0
VERTEX
8
Fiber_Path_Minus2
10
0.430000
20
0.770732
30
0.0
70
0
0
VERTEX
8
Fiber_Path_Minus2
10
0.410000
20
0.777104
30
0.0
70
0
0
VERTEX
8
Fiber_Path_Minus2
10
0.391205
20
0.790000
30
0.0
70
0
0
VERTEX
8
Fiber_Path_Minus2
10
0.390000
20
0.790729
30
0.0
70
0
0
VERTEX
8
Fiber_Path_Minus2
10
0.370000
20
0.796990
30
0.0
70
0
0
VERTEX
8
Fiber_Path_Minus2
10
0.350021
20
0.810000
30
0.0
70
0
0
VERTEX
8
Fiber_Path_Minus2
10
0.350000
20
0.810011
30
0.0
70
0
0
VERTEX
8
Fiber_Path_Minus2
10
0.330000
20
0.810729
30
0.0
70
0
0
VERTEX
8
Fiber_Path_Minus2
10
0.310000
20
0.816988
30
0.0
70
0
0
VERTEX
8
Fiber_Path_Minus2
10
0.290000
20
0.830000
30
0.0
70
0
0
VERTEX
8
Fiber_Path_Minus2
10
0.290000
20
0.830000
30
0.0
70
0
0
VERTEX
8
Fiber_Path_Minus2
10
0.270000
20
0.830011
30
0.0
70
0
0
VERTEX
8
Fiber_Path_Minus2
10
0.250000
20
0.830762
30
0.0
70
0
0
VERTEX
8
Fiber_Path_Minus2
10
0.230000
20
0.838284
30
0.0
70
0
0
VERTEX
8
Fiber_Path_Minus2
10
0.218284
20
0.850000
30
0.0
70
0
0
VERTEX
8
Fiber_Path_Minus2
10
0.210000
20
0.856988
30
0.0
70
0
0
VERTEX
8
Fiber_Path_Minus2
10
0.190000
20
0.870000
30
0.0
70
0
0
VERTEX
8
Fiber_Path_Minus2
10
0.190000
20
0.870000
30
0.0
70
0
0
VERTEX
8
Fiber_Path_Minus2
10
0.170000
20
0.870011
30
0.0
70
0
0
VERTEX
8
Fiber_Path_Minus2
10
0.150000
20
0.870729
30
0.0
70
0
0
VERTEX
8
Fiber_Path_Minus2
10
0.130000
20
0.876990
30
0.0
70
0
0
VERTEX
8
Fiber_Path_Minus2
10
0.110021
20
0.890000
30
0.0
70
0
0
VERTEX
8
Fiber_Path_Minus2
10
0.110000
20
0.890012
30
0.0
70
0
0
VERTEX
8
Fiber_Path_Minus2
10
0.090000
20
0.890964
30
0.0
70
0
0
VERTEX
8
Fiber_Path_Minus2
10
0.070964
20
0.910000
30
0.0
70
0
0
VERTEX
8
Fiber_Path_Minus2
10
0.078284
20
0.930000
30
0.0
70
0
0
VERTEX
8
Fiber_Path_Minus2
10
0.090000
20
0.941716
30
0.0
70
0
0
SEQEND
8
Fiber_Path_Minus2
0
POLYLINE
8
Fiber_Path_Zero
66
1
70
0
10
0.0
20
0.0
30
0.0
0
VERTEX
8
Fiber_Path_Zero
10
0.010000
20
0.061713
30
0.0
70
0
0
VERTEX
8
Fiber_Path_Zero
10
0.022139
20
0.050000
30
0.0
70
0
0
VERTEX
8
Fiber_Path_Zero
10
0.010000
20
0.041339
30
0.0
70
0
0
SEQEND
8
Fiber_Path_Zero
0
POLYLINE
8
Fiber_Path_Zero
66
1
70
0
10
0.0
20
0.0
30
0.0
0
VERTEX
8
Fiber_Path_Zero
10
0.070000
20
0.950000
30
0.0
70
0
0
VERTEX
8
Fiber_Path_Zero
10
0.090000
20
0.970000
30
0.0
70
0
0
VERTEX
8
Fiber_Path_Zero
10
0.110000
20
0.970000
30
0.0
70
0
0
VERTEX
8
Fiber_Path_Zero
10
0.130000
20
0.970000
30
0.0
70
0
0
VERTEX
8
Fiber_Path_Zero
10
0.150000
20
0.970000
30
0.0
70
0
0
VERTEX
8
Fiber_Path_Zero
10
0.170000
20
0.970000
30
0.0
70
0
0
VERTEX
8
Fiber_Path_Zero
10
0.190000
20
0.970000
30
0.0
70
0
0
VERTEX
8
Fiber_Path_Zero
10
0.210000
20
0.970000
30
0.0
70
0
0
VERTEX
8
Fiber_Path_Zero
10
0.230000
20
0.970000
30
0.0
70
0
0
VERTEX
8
Fiber_Path_Zero
10
0.250000
20
0.970000
30
0.0
70
0
0
VERTEX
8
Fiber_Path_Zero
10
0.270000
20
0.970000
30
0.0
70
0
0
VERTEX
8
Fiber_Path_Zero
10
0.290000
20
0.970000
30
0.0
70
0
0
VERTEX
8
Fiber_Path_Zero
10
0.310000
20
0.970000
30
0.0
70
0
0
VERTEX
8
Fiber_Path_Zero
10
0.330000
20
0.950000
30
0.0
70
0
0
VERTEX
8
Fiber_Path_Zero
10
0.340171
20
0.930000
30
0.0
70
0
0
VERTEX
8
Fiber_Path_Zero
10
0.350000
20
0.923252
30
0.0
70
0
0
VERTEX
8
Fiber_Path_Zero
10
0.370000
20
0.923683
30
0.0
70
0
0
VERTEX
8
Fiber_Path_Zero
10
0.390000
20
0.930000
30
0.0
70
0
0
VERTEX
8
Fiber_Path_Zero
10
0.410000
20
0.930000
30
0.0
70
0
0
VERTEX
8
Fiber_Path_Zero
10
0.430000
20
0.910000
30
0.0
70
0
0
VERTEX
8
Fiber_Path_Zero
10
0.450000
20
0.910000
30
0.0
70
0
0
VERTEX
8
Fiber_Path_Zero
10
0.470000
20
0.910000
30
0.0
70
0
0
VERTEX
8
Fiber_Path_Zero
10
0.490000
20
0.890000
30
0.0
70
0
0
VERTEX
8
Fiber_Path_Zero
10
0.510000
20
0.890000
30
0.0
70
0
0
VERTEX
8
Fiber_Path_Zero
10
0.530000
20
0.890000
30
0.0
70
0
0
VERTEX
8
Fiber_Path_Zero
10
0.550000
20
0.890000
30
0.0
70
0
0
VERTEX
8
Fiber_Path_Zero
10
0.570000
20
0.870000
30
0.0
70
0
0
VERTEX
8
Fiber_Path_Zero
10
0.590000
20
0.870000
30
0.0
70
0
0
VERTEX
8
Fiber_Path_Zero
10
0.610000
20
0.870000
30
0.0
70
0
0
VERTEX
8
Fiber_Path_Zero
10
0.630000
20
0.850000
30
0.0
70
0
0
VERTEX
8
Fiber_Path_Zero
10
0.650000
20
0.850000
30
0.0
70
0
0
VERTEX
8
Fiber_Path_Zero
10
0.670000
20
0.850000
30
0.0
70
0
0
VERTEX
8
Fiber_Path_Zero
10
0.690000
20
0.850000
30
0.0
70
0
0
VERTEX
8
Fiber_Path_Zero
10
0.710000
20
0.830000
30
0.0
70
0
0
VERTEX
8
Fiber_Path_Zero
10
0.730000
20
0.830000
30
0.0
70
0
0
VERTEX
8
Fiber_Path_Zero
10
0.750000
20
0.830000
30
0.0
70
0
0
VERTEX
8
Fiber_Path_Zero
10
0.770000
20
0.830000
30
0.0
70
0
0
VERTEX
8
Fiber_Path_Zero
10
0.790000
20
0.810000
30
0.0
70
0
0
VERTEX
8
Fiber_Path_Zero
10
0.810000
20
0.810000
30
0.0
70
0
0
VERTEX
8
Fiber_Path_Zero
10
0.830000
20
0.810000
30
0.0
70
0
0
VERTEX
8
Fiber_Path_Zero
10
0.850000
20
0.810000
30
0.0
70
0
0
VERTEX
8
Fiber_Path_Zero
10
0.870000
20
0.790000
30
0.0
70
0
0
VERTEX
8
Fiber_Path_Zero
10
0.890000
20
0.790000
30
0.0
70
0
0
VERTEX
8
Fiber_Path_Zero
10
0.910000
20
0.790000
30
0.0
70
0
0
VERTEX
8
Fiber_Path_Zero
10
0.930000
20
0.790000
30
0.0
70
0
0
VERTEX
8
Fiber_Path_Zero
10
0.950000
20
0.790000
30
0.0
70
0
0
VERTEX
8
Fiber_Path_Zero
10
0.970000
20
0.770000
30
0.0
70
0
0
VERTEX
8
Fiber_Path_Zero
10
0.990000
20
0.770000
30
0.0
70
0
0
VERTEX
8
Fiber_Path_Zero
10
1.010000
20
0.770000
30
0.0
70
0
0
VERTEX
8
Fiber_Path_Zero
10
1.030000
20
0.770000
30
0.0
70
0
0
VERTEX
8
Fiber_Path_Zero
10
1.050000
20
0.770000
30
0.0
70
0
0
VERTEX
8
Fiber_Path_Zero
10
1.070000
20
0.770000
30
0.0
70
0
0
VERTEX
8
Fiber_Path_Zero
10
1.090000
20
0.750000
30
0.0
70
0
0
VERTEX
8
Fiber_Path_Zero
10
1.110000
20
0.750000
30
0.0
70
0
0
VERTEX
8
Fiber_Path_Zero
10
1.130000
20
0.750000
30
0.0
70
0
0
VERTEX
8
Fiber_Path_Zero
10
1.150000
20
0.750000
30
0.0
70
0
0
VERTEX
8
Fiber_Path_Zero
10
1.170000
20
0.730000
30
0.0
70
0
0
VERTEX
8
Fiber_Path_Zero
10
1.190000
20
0.730000
30
0.0
70
0
0
VERTEX
8
Fiber_Path_Zero
10
1.210000
20
0.730000
30
0.0
70
0
0
VERTEX
8
Fiber_Path_Zero
10
1.230000
20
0.730000
30
0.0
70
0
0
VERTEX
8
Fiber_Path_Zero
10
1.250000
20
0.710000
30
0.0
70
0
0
VERTEX
8
Fiber_Path_Zero
10
1.270000
20
0.710000
30
0.0
70
0
0
VERTEX
8
Fiber_Path_Zero
10
1.290000
20
0.710000
30
0.0
70
0
0
VERTEX
8
Fiber_Path_Zero
10
1.310000
20
0.710000
30
0.0
70
0
0
VERTEX
8
Fiber_Path_Zero
10
1.330000
20
0.690000
30
0.0
70
0
0
VERTEX
8
Fiber_Path_Zero
10
1.350000
20
0.690000
30
0.0
70
0
0
VERTEX
8
Fiber_Path_Zero
10
1.370000
20
0.670000
30
0.0
70
0
0
VERTEX
8
Fiber_Path_Zero
10
1.390000
20
0.670000
30
0.0
70
0
0
VERTEX
8
Fiber_Path_Zero
10
1.410000
20
0.670000
30
0.0
70
0
0
VERTEX
8
Fiber_Path_Zero
10
1.430000
20
0.650000
30
0.0
70
0
0
VERTEX
8
Fiber_Path_Zero
10
1.450000
20
0.650000
30
0.0
70
0
0
VERTEX
8
Fiber_Path_Zero
10
1.470000
20
0.630000
30
0.0
70
0
0
VERTEX
8
Fiber_Path_Zero
10
1.490000
20
0.630000
30
0.0
70
0
0
VERTEX
8
Fiber_Path_Zero
10
1.510000
20
0.610000
30
0.0
70
0
0
VERTEX
8
Fiber_Path_Zero
10
1.530000
20
0.590000
30
0.0
70
0
0
VERTEX
8
Fiber_Path_Zero
10
1.550000
20
0.570000
30
0.0
70
0
0
VERTEX
8
Fiber_Path_Zero
10
1.550000
20
0.550000
30
0.0
70
0
0
VERTEX
8
Fiber_Path_Zero
10
1.550000
20
0.530000
30
0.0
70
0
0
VERTEX
8
Fiber_Path_Zero
10
1.550000
20
0.510000
30
0.0
70
0
0
VERTEX
8
Fiber_Path_Zero
10
1.550000
20
0.490000
30
0.0
70
0
0
VERTEX
8
Fiber_Path_Zero
10
1.550000
20
0.470000
30
0.0
70
0
0
VERTEX
8
Fiber_Path_Zero
10
1.550000
20
0.450000
30
0.0
70
0
0
VERTEX
8
Fiber_Path_Zero
10
1.550000
20
0.430000
30
0.0
70
0
0
VERTEX
8
Fiber_Path_Zero
10
1.530000
20
0.410000
30
0.0
70
0
0
VERTEX
8
Fiber_Path_Zero
10
1.510000
20
0.390000
30
0.0
70
0
0
VERTEX
8
Fiber_Path_Zero
10
1.490000
20
0.370000
30
0.0
70
0
0
VERTEX
8
Fiber_Path_Zero
10
1.470000
20
0.370000
30
0.0
70
0
0
VERTEX
8
Fiber_Path_Zero
10
1.450000
20
0.350000
30
0.0
70
0
0
VERTEX
8
Fiber_Path_Zero
10
1.430000
20
0.350000
30
0.0
70
0
0
VERTEX
8
Fiber_Path_Zero
10
1.410000
20
0.330000
30
0.0
70
0
0
VERTEX
8
Fiber_Path_Zero
10
1.390000
20
0.330000
30
0.0
70
0
0
VERTEX
8
Fiber_Path_Zero
10
1.370000
20
0.330000
30
0.0
70
0
0
VERTEX
8
Fiber_Path_Zero
10
1.350000
20
0.310000
30
0.0
70
0
0
VERTEX
8
Fiber_Path_Zero
10
1.330000
20
0.310000
30
0.0
70
0
0
VERTEX
8
Fiber_Path_Zero
10
1.310000
20
0.290000
30
0.0
70
0
0
VERTEX
8
Fiber_Path_Zero
10
1.290000
20
0.290000
30
0.0
70
0
0
VERTEX
8
Fiber_Path_Zero
10
1.270000
20
0.290000
30
0.0
70
0
0
VERTEX
8
Fiber_Path_Zero
10
1.250000
20
0.290000
30
0.0
70
0
0
VERTEX
8
Fiber_Path_Zero
10
1.230000
20
0.270000
30
0.0
70
0
0
VERTEX
8
Fiber_Path_Zero
10
1.210000
20
0.270000
30
0.0
70
0
0
VERTEX
8
Fiber_Path_Zero
10
1.190000
20
0.270000
30
0.0
70
0
0
VERTEX
8
Fiber_Path_Zero
10
1.170000
20
0.270000
30
0.0
70
0
0
VERTEX
8
Fiber_Path_Zero
10
1.150000
20
0.250000
30
0.0
70
0
0
VERTEX
8
Fiber_Path_Zero
10
1.130000
20
0.250000
30
0.0
70
0
0
VERTEX
8
Fiber_Path_Zero
10
1.110000
20
0.250000
30
0.0
70
0
0
VERTEX
8
Fiber_Path_Zero
10
1.090000
20
0.250000
30
0.0
70
0
0
VERTEX
8
Fiber_Path_Zero
10
1.070000
20
0.230000
30
0.0
70
0
0
VERTEX
8
Fiber_Path_Zero
10
1.050000
20
0.230000
30
0.0
70
0
0
VERTEX
8
Fiber_Path_Zero
10
1.030000
20
0.230000
30
0.0
70
0
0
VERTEX
8
Fiber_Path_Zero
10
1.010000
20
0.230000
30
0.0
70
0
0
VERTEX
8
Fiber_Path_Zero
10
0.990000
20
0.230000
30
0.0
70
0
0
VERTEX
8
Fiber_Path_Zero
10
0.970000
20
0.230000
30
0.0
70
0
0
VERTEX
8
Fiber_Path_Zero
10
0.950000
20
0.210000
30
0.0
70
0
0
VERTEX
8
Fiber_Path_Zero
10
0.930000
20
0.210000
30
0.0
70
0
0
VERTEX
8
Fiber_Path_Zero
10
0.910000
20
0.210000
30
0.0
70
0
0
VERTEX
8
Fiber_Path_Zero
10
0.890000
20
0.210000
30
0.0
70
0
0
VERTEX
8
Fiber_Path_Zero
10
0.870000
20
0.210000
30
0.0
70
0
0
VERTEX
8
Fiber_Path_Zero
10
0.850000
20
0.190000
30
0.0
70
0
0
VERTEX
8
Fiber_Path_Zero
10
0.830000
20
0.190000
30
0.0
70
0
0
VERTEX
8
Fiber_Path_Zero
10
0.810000
20
0.190000
30
0.0
70
0
0
VERTEX
8
Fiber_Path_Zero
10
0.790000
20
0.190000
30
0.0
70
0
0
VERTEX
8
Fiber_Path_Zero
10
0.770000
20
0.170000
30
0.0
70
0
0
VERTEX
8
Fiber_Path_Zero
10
0.750000
20
0.170000
30
0.0
70
0
0
VERTEX
8
Fiber_Path_Zero
10
0.730000
20
0.170000
30
0.0
70
0
0
VERTEX
8
Fiber_Path_Zero
10
0.710000
20
0.170000
30
0.0
70
0
0
VERTEX
8
Fiber_Path_Zero
10
0.690000
20
0.150000
30
0.0
70
0
0
VERTEX
8
Fiber_Path_Zero
10
0.670000
20
0.150000
30
0.0
70
0
0
VERTEX
8
Fiber_Path_Zero
10
0.650000
20
0.150000
30
0.0
70
0
0
VERTEX
8
Fiber_Path_Zero
10
0.630000
20
0.150000
30
0.0
70
0
0
VERTEX
8
Fiber_Path_Zero
10
0.610000
20
0.130000
30
0.0
70
0
0
VERTEX
8
Fiber_Path_Zero
10
0.590000
20
0.130000
30
0.0
70
0
0
VERTEX
8
Fiber_Path_Zero
10
0.570000
20
0.130000
30
0.0
70
0
0
VERTEX
8
Fiber_Path_Zero
10
0.550000
20
0.110000
30
0.0
70
0
0
VERTEX
8
Fiber_Path_Zero
10
0.530000
20
0.110000
30
0.0
70
0
0
VERTEX
8
Fiber_Path_Zero
10
0.510000
20
0.110000
30
0.0
70
0
0
VERTEX
8
Fiber_Path_Zero
10
0.490000
20
0.110000
30
0.0
70
0
0
VERTEX
8
Fiber_Path_Zero
10
0.470000
20
0.090000
30
0.0
70
0
0
VERTEX
8
Fiber_Path_Zero
10
0.450000
20
0.090000
30
0.0
70
0
0
VERTEX
8
Fiber_Path_Zero
10
0.430000
20
0.090000
30
0.0
70
0
0
VERTEX
8
Fiber_Path_Zero
10
0.410000
20
0.070000
30
0.0
70
0
0
VERTEX
8
Fiber_Path_Zero
10
0.390000
20
0.070000
30
0.0
70
0
0
VERTEX
8
Fiber_Path_Zero
10
0.370000
20
0.070000
30
0.0
70
0
0
VERTEX
8
Fiber_Path_Zero
10
0.350000
20
0.070000
30
0.0
70
0
0
VERTEX
8
Fiber_Path_Zero
10
0.330000
20
0.050000
30
0.0
70
0
0
VERTEX
8
Fiber_Path_Zero
10
0.310000
20
0.050000
30
0.0
70
0
0
VERTEX
8
Fiber_Path_Zero
10
0.290000
20
0.050000
30
0.0
70
0
0
VERTEX
8
Fiber_Path_Zero
10
0.270000
20
0.050000
30
0.0
70
0
0
VERTEX
8
Fiber_Path_Zero
10
0.250000
20
0.050000
30
0.0
70
0
0
VERTEX
8
Fiber_Path_Zero
10
0.230000
20
0.050000
30
0.0
70
0
0
VERTEX
8
Fiber_Path_Zero
10
0.210000
20
0.050000
30
0.0
70
0
0
VERTEX
8
Fiber_Path_Zero
10
0.190000
20
0.050000
30
0.0
70
0
0
VERTEX
8
Fiber_Path_Zero
10
0.170000
20
0.050000
30
0.0
70
0
0
VERTEX
8
Fiber_Path_Zero
10
0.150000
20
0.050000
30
0.0
70
0
0
VERTEX
8
Fiber_Path_Zero
10
0.130000
20
0.050000
30
0.0
70
0
0
VERTEX
8
Fiber_Path_Zero
10
0.110000
20
0.050000
30
0.0
70
0
0
VERTEX
8
Fiber_Path_Zero
10
0.090000
20
0.070000
30
0.0
70
0
0
VERTEX
8
Fiber_Path_Zero
10
0.096667
20
0.090000
30
0.0
70
0
0
VERTEX
8
Fiber_Path_Zero
10
0.098453
20
0.110000
30
0.0
70
0
0
VERTEX
8
Fiber_Path_Zero
10
0.110000
20
0.130000
30
0.0
70
0
0
VERTEX
8
Fiber_Path_Zero
10
0.130000
20
0.150000
30
0.0
70
0
0
VERTEX
8
Fiber_Path_Zero
10
0.150000
20
0.150000
30
0.0
70
0
0
VERTEX
8
Fiber_Path_Zero
10
0.170000
20
0.150000
30
0.0
70
0
0
VERTEX
8
Fiber_Path_Zero
10
0.190000
20
0.170000
30
0.0
70
0
0
VERTEX
8
Fiber_Path_Zero
10
0.210000
20
0.170000
30
0.0
70
0
0
VERTEX
8
Fiber_Path_Zero
10
0.230000
20
0.190000
30
0.0
70
0
0
VERTEX
8
Fiber_Path_Zero
10
0.250000
20
0.190000
30
0.0
70
0
0
VERTEX
8
Fiber_Path_Zero
10
0.270000
20
0.190000
30
0.0
70
0
0
VERTEX
8
Fiber_Path_Zero
10
0.290000
20
0.210000
30
0.0
70
0
0
VERTEX
8
Fiber_Path_Zero
10
0.310000
20
0.210000
30
0.0
70
0
0
VERTEX
8
Fiber_Path_Zero
10
0.330000
20
0.210000
30
0.0
70
0
0
VERTEX
8
Fiber_Path_Zero
10
0.350000
20
0.230000
30
0.0
70
0
0
VERTEX
8
Fiber_Path_Zero
10
0.370000
20
0.230000
30
0.0
70
0
0
VERTEX
8
Fiber_Path_Zero
10
0.390000
20
0.230000
30
0.0
70
0
0
VERTEX
8
Fiber_Path_Zero
10
0.410000
20
0.250000
30
0.0
70
0
0
VERTEX
8
Fiber_Path_Zero
10
0.430000
20
0.250000
30
0.0
70
0
0
VERTEX
8
Fiber_Path_Zero
10
0.450000
20
0.250000
30
0.0
70
0
0
VERTEX
8
Fiber_Path_Zero
10
0.470000
20
0.250000
30
0.0
70
0
0
VERTEX
8
Fiber_Path_Zero
10
0.490000
20
0.270000
30
0.0
70
0
0
VERTEX
8
Fiber_Path_Zero
10
0.510000
20
0.270000
30
0.0
70
0
0
VERTEX
8
Fiber_Path_Zero
10
0.530000
20
0.270000
30
0.0
70
0
0
VERTEX
8
Fiber_Path_Zero
10
0.550000
20
0.290000
30
0.0
70
0
0
VERTEX
8
Fiber_Path_Zero
10
0.570000
20
0.290000
30
0.0
70
0
0
VERTEX
8
Fiber_Path_Zero
10
0.590000
20
0.290000
30
0.0
70
0
0
VERTEX
8
Fiber_Path_Zero
10
0.610000
20
0.310000
30
0.0
70
0
0
VERTEX
8
Fiber_Path_Zero
10
0.630000
20
0.310000
30
0.0
70
0
0
VERTEX
8
Fiber_Path_Zero
10
0.650000
20
0.310000
30
0.0
70
0
0
VERTEX
8
Fiber_Path_Zero
10
0.670000
20
0.310000
30
0.0
70
0
0
VERTEX
8
Fiber_Path_Zero
10
0.690000
20
0.330000
30
0.0
70
0
0
VERTEX
8
Fiber_Path_Zero
10
0.710000
20
0.330000
30
0.0
70
0
0
VERTEX
8
Fiber_Path_Zero
10
0.730000
20
0.330000
30
0.0
70
0
0
VERTEX
8
Fiber_Path_Zero
10
0.750000
20
0.350000
30
0.0
70
0
0
VERTEX
8
Fiber_Path_Zero
10
0.770000
20
0.350000
30
0.0
70
0
0
VERTEX
8
Fiber_Path_Zero
10
0.790000
20
0.370000
30
0.0
70
0
0
VERTEX
8
Fiber_Path_Zero
10
0.810000
20
0.370000
30
0.0
70
0
0
VERTEX
8
Fiber_Path_Zero
10
0.830000
20
0.370000
30
0.0
70
0
0
VERTEX
8
Fiber_Path_Zero
10
0.850000
20
0.390000
30
0.0
70
0
0
VERTEX
8
Fiber_Path_Zero
10
0.870000
20
0.390000
30
0.0
70
0
0
VERTEX
8
Fiber_Path_Zero
10
0.890000
20
0.410000
30
0.0
70
0
0
VERTEX
8
Fiber_Path_Zero
10
0.910000
20
0.430000
30
0.0
70
0
0
VERTEX
8
Fiber_Path_Zero
10
0.930000
20
0.423333
30
0.0
70
0
0
VERTEX
8
Fiber_Path_Zero
10
0.936667
20
0.430000
30
0.0
70
0
0
VERTEX
8
Fiber_Path_Zero
10
0.950000
20
0.443333
30
0.0
70
0
0
VERTEX
8
Fiber_Path_Zero
10
0.956667
20
0.450000
30
0.0
70
0
0
VERTEX
8
Fiber_Path_Zero
10
0.970000
20
0.463333
30
0.0
70
0
0
VERTEX
8
Fiber_Path_Zero
10
0.976279
20
0.470000
30
0.0
70
0
0
VERTEX
8
Fiber_Path_Zero
10
0.990000
20
0.482142
30
0.0
70
0
0
VERTEX
8
Fiber_Path_Zero
10
0.996667
20
0.490000
30
0.0
70
0
0
VERTEX
8
Fiber_Path_Zero
10
0.996667
20
0.510000
30
0.0
70
0
0
VERTEX
8
Fiber_Path_Zero
10
0.990000
20
0.517858
30
0.0
70
0
0
VERTEX
8
Fiber_Path_Zero
10
0.976279
20
0.530000
30
0.0
70
0
0
VERTEX
8
Fiber_Path_Zero
10
0.970000
20
0.536667
30
0.0
70
0
0
VERTEX
8
Fiber_Path_Zero
10
0.956667
20
0.550000
30
0.0
70
0
0
VERTEX
8
Fiber_Path_Zero
10
0.950000
20
0.556667
30
0.0
70
0
0
VERTEX
8
Fiber_Path_Zero
10
0.936667
20
0.570000
30
0.0
70
0
0
VERTEX
8
Fiber_Path_Zero
10
0.930000
20
0.576667
30
0.0
70
0
0
VERTEX
8
Fiber_Path_Zero
10
0.910000
20
0.570000
30
0.0
70
0
0
VERTEX
8
Fiber_Path_Zero
10
0.890000
20
0.590000
30
0.0
70
0
0
VERTEX
8
Fiber_Path_Zero
10
0.870000
20
0.610000
30
0.0
70
0
0
VERTEX
8
Fiber_Path_Zero
10
0.850000
20
0.610000
30
0.0
70
0
0
VERTEX
8
Fiber_Path_Zero
10
0.830000
20
0.630000
30
0.0
70
0
0
VERTEX
8
Fiber_Path_Zero
10
0.810000
20
0.630000
30
0.0
70
0
0
VERTEX
8
Fiber_Path_Zero
10
0.790000
20
0.630000
30
0.0
70
0
0
VERTEX
8
Fiber_Path_Zero
10
0.770000
20
0.650000
30
0.0
70
0
0
VERTEX
8
Fiber_Path_Zero
10
0.750000
20
0.650000
30
0.0
70
0
0
VERTEX
8
Fiber_Path_Zero
10
0.730000
20
0.670000
30
0.0
70
0
0
VERTEX
8
Fiber_Path_Zero
10
0.710000
20
0.670000
30
0.0
70
0
0
VERTEX
8
Fiber_Path_Zero
10
0.690000
20
0.670000
30
0.0
70
0
0
VERTEX
8
Fiber_Path_Zero
10
0.670000
20
0.690000
30
0.0
70
0
0
VERTEX
8
Fiber_Path_Zero
10
0.650000
20
0.690000
30
0.0
70
0
0
VERTEX
8
Fiber_Path_Zero
10
0.630000
20
0.690000
30
0.0
70
0
0
VERTEX
8
Fiber_Path_Zero
10
0.610000
20
0.690000
30
0.0
70
0
0
VERTEX
8
Fiber_Path_Zero
10
0.590000
20
0.710000
30
0.0
70
0
0
VERTEX
8
Fiber_Path_Zero
10
0.570000
20
0.710000
30
0.0
70
0
0
VERTEX
8
Fiber_Path_Zero
10
0.550000
20
0.710000
30
0.0
70
0
0
VERTEX
8
Fiber_Path_Zero
10
0.530000
20
0.730000
30
0.0
70
0
0
VERTEX
8
Fiber_Path_Zero
10
0.510000
20
0.730000
30
0.0
70
0
0
VERTEX
8
Fiber_Path_Zero
10
0.490000
20
0.750000
30
0.0
70
0
0
VERTEX
8
Fiber_Path_Zero
10
0.470000
20
0.750000
30
0.0
70
0
0
VERTEX
8
Fiber_Path_Zero
10
0.450000
20
0.750000
30
0.0
70
0
0
VERTEX
8
Fiber_Path_Zero
10
0.430000
20
0.750000
30
0.0
70
0
0
VERTEX
8
Fiber_Path_Zero
10
0.410000
20
0.750000
30
0.0
70
0
0
VERTEX
8
Fiber_Path_Zero
10
0.390000
20
0.770000
30
0.0
70
0
0
VERTEX
8
Fiber_Path_Zero
10
0.370000
20
0.770000
30
0.0
70
0
0
VERTEX
8
Fiber_Path_Zero
10
0.350000
20
0.790000
30
0.0
70
0
0
VERTEX
8
Fiber_Path_Zero
10
0.330000
20
0.790000
30
0.0
70
0
0
VERTEX
8
Fiber_Path_Zero
10
0.310000
20
0.790000
30
0.0
70
0
0
VERTEX
8
Fiber_Path_Zero
10
0.290000
20
0.810000
30
0.0
70
0
0
VERTEX
8
Fiber_Path_Zero
10
0.270000
20
0.810000
30
0.0
70
0
0
VERTEX
8
Fiber_Path_Zero
10
0.250000
20
0.810000
30
0.0
70
0
0
VERTEX
8
Fiber_Path_Zero
10
0.230000
20
0.810000
30
0.0
70
0
0
VERTEX
8
Fiber_Path_Zero
10
0.210000
20
0.830000
30
0.0
70
0
0
VERTEX
8
Fiber_Path_Zero
10
0.190000
20
0.850000
30
0.0
70
0
0
VERTEX
8
Fiber_Path_Zero
10
0.170000
20
0.850000
30
0.0
70
0
0
VERTEX
8
Fiber_Path_Zero
10
0.150000
20
0.850000
30
0.0
70
0
0
VERTEX
8
Fiber_Path_Zero
10
0.130000
20
0.850000
30
0.0
70
0
0
VERTEX
8
Fiber_Path_Zero
10
0.110000
20
0.870000
30
0.0
70
0
0
VERTEX
8
Fiber_Path_Zero
10
0.090000
20
0.870000
30
0.0
70
0
0
VERTEX
8
Fiber_Path_Zero
10
0.078453
20
0.890000
30
0.0
70
0
0
VERTEX
8
Fiber_Path_Zero
10
0.070000
20
0.898453
30
0.0
70
0
0
VERTEX
8
Fiber_Path_Zero
10
0.050000
20
0.910000
30
0.0
70
0
0
VERTEX
8
Fiber_Path_Zero
10
0.050000
20
0.930000
30
0.0
70
0
0
VERTEX
8
Fiber_Path_Zero
10
0.070000
20
0.950000
30
0.0
70
0
0
SEQEND
8
Fiber_Path_Zero
0
POLYLINE
8
Fiber_Path_Plus4
66
1
70
0
10
0.0
20
0.0
30
0.0
0
VERTEX
8
Fiber_Path_Plus4
10
0.021716
20
0.990000
30
0.0
70
0
0
VERTEX
8
Fiber_Path_Plus4
10
0.010000
20
0.978284
30
0.0
70
0
0
SEQEND
8
Fiber_Path_Plus4
0
POLYLINE
8
Fiber_Path_Plus4
66
1
70
0
10
0.0
20
0.0
30
0.0
0
VERTEX
8
Fiber_Path_Plus4
10
0.081716
20
0.010000
30
0.0
70
0
0
VERTEX
8
Fiber_Path_Plus4
10
0.070000
20
0.021716
30
0.0
70
0
0
VERTEX
8
Fiber_Path_Plus4
10
0.061716
20
0.030000
30
0.0
70
0
0
VERTEX
8
Fiber_Path_Plus4
10
0.050000
20
0.041716
30
0.0
70
0
0
VERTEX
8
Fiber_Path_Plus4
10
0.041716
20
0.050000
30
0.0
70
0
0
VERTEX
8
Fiber_Path_Plus4
10
0.030000
20
0.061716
30
0.0
70
0
0
VERTEX
8
Fiber_Path_Plus4
10
0.027697
20
0.050000
30
0.0
70
0
0
VERTEX
8
Fiber_Path_Plus4
10
0.010000
20
0.037373
30
0.0
70
0
0
SEQEND
8
Fiber_Path_Plus4
0
POLYLINE
8
Fiber_Path_Plus4
66
1
70
0
10
0.0
20
0.0
30
0.0
0
VERTEX
8
Fiber_Path_Plus4
10
0.411205
20
0.990000
30
0.0
70
0
0
VERTEX
8
Fiber_Path_Plus4
10
0.430000
20
0.977104
30
0.0
70
0
0
VERTEX
8
Fiber_Path_Plus4
10
0.450000
20
0.970732
30
0.0
70
0
0
VERTEX
8
Fiber_Path_Plus4
10
0.470000
20
0.970011
30
0.0
70
0
0
VERTEX
8
Fiber_Path_Plus4
10
0.470021
20
0.970000
30
0.0
70
0
0
VERTEX
8
Fiber_Path_Plus4
10
0.490000
20
0.956990
30
0.0
70
0
0
VERTEX
8
Fiber_Path_Plus4
10
0.510000
20
0.950729
30
0.0
70
0
0
VERTEX
8
Fiber_Path_Plus4
10
0.530000
20
0.950011
30
0.0
70
0
0
VERTEX
8
Fiber_Path_Plus4
10
0.550000
20
0.950000
30
0.0
70
0
0
VERTEX
8
Fiber_Path_Plus4
10
0.550000
20
0.950000
30
0.0
70
0
0
VERTEX
8
Fiber_Path_Plus4
10
0.570000
20
0.936988
30
0.0
70
0
0
VERTEX
8
Fiber_Path_Plus4
10
0.590000
20
0.930729
30
0.0
70
0
0
VERTEX
8
Fiber_Path_Plus4
10
0.610000
20
0.930011
30
0.0
70
0
0
VERTEX
8
Fiber_Path_Plus4
10
0.610021
20
0.930000
30
0.0
70
0
0
VERTEX
8
Fiber_Path_Plus4
10
0.630000
20
0.916990
30
0.0
70
0
0
VERTEX
8
Fiber_Path_Plus4
10
0.650000
20
0.910729
30
0.0
70
0
0
VERTEX
8
Fiber_Path_Plus4
10
0.670000
20
0.910011
30
0.0
70
0
0
VERTEX
8
Fiber_Path_Plus4
10
0.690000
20
0.910000
30
0.0
70
0
0
VERTEX
8
Fiber_Path_Plus4
10
0.690000
20
0.910000
30
0.0
70
0
0
VERTEX
8
Fiber_Path_Plus4
10
0.710000
20
0.896988
30
0.0
70
0
0
VERTEX
8
Fiber_Path_Plus4
10
0.730000
20
0.890729
30
0.0
70
0
0
VERTEX
8
Fiber_Path_Plus4
10
0.750000
20
0.890011
30
0.0
70
0
0
VERTEX
8
Fiber_Path_Plus4
10
0.770000
20
0.890000
30
0.0
70
0
0
VERTEX
8
Fiber_Path_Plus4
10
0.770000
20
0.890000
30
0.0
70
0
0
VERTEX
8
Fiber_Path_Plus4
10
0.790000
20
0.876988
30
0.0
70
0
0
VERTEX
8
Fiber_Path_Plus4
10
0.810000
20
0.870729
30
0.0
70
0
0
VERTEX
8
Fiber_Path_Plus4
10
0.830000
20
0.870011
30
0.0
70
0
0
VERTEX
8
Fiber_Path_Plus4
10
0.850000
20
0.870000
30
0.0
70
0
0
VERTEX
8
Fiber_Path_Plus4
10
0.850000
20
0.870000
30
0.0
70
0
0
VERTEX
8
Fiber_Path_Plus4
10
0.870000
20
0.856988
30
0.0
70
0
0
VERTEX
8
Fiber_Path_Plus4
10
0.890000
20
0.850729
30
0.0
70
0
0
VERTEX
8
Fiber_Path_Plus4
10
0.910000
20
0.850011
30
0.0
70
0
0
VERTEX
8
Fiber_Path_Plus4
10
0.930000
20
0.850000
30
0.0
70
0
0
VERTEX
8
Fiber_Path_Plus4
10
0.950000
20
0.850000
30
0.0
70
0
0
VERTEX
8
Fiber_Path_Plus4
10
0.950000
20
0.850000
30
0.0
70
0
0
VERTEX
8
Fiber_Path_Plus4
10
0.970000
20
0.836988
30
0.0
70
0
0
VERTEX
8
Fiber_Path_Plus4
10
0.990000
20
0.830729
30
0.0
70
0
0
VERTEX
8
Fiber_Path_Plus4
10
1.010000
20
0.830011
30
0.0
70
0
0
VERTEX
8
Fiber_Path_Plus4
10
1.030000
20
0.830000
30
0.0
70
0
0
VERTEX
8
Fiber_Path_Plus4
10
1.050000
20
0.830000
30
0.0
70
0
0
VERTEX
8
Fiber_Path_Plus4
10
1.070000
20
0.830000
30
0.0
70
0
0
VERTEX
8
Fiber_Path_Plus4
10
1.090000
20
0.816988
30
0.0
70
0
0
VERTEX
8
Fiber_Path_Plus4
10
1.110000
20
0.810729
30
0.0
70
0
0
VERTEX
8
Fiber_Path_Plus4
10
1.130000
20
0.810011
30
0.0
70
0
0
VERTEX
8
Fiber_Path_Plus4
10
1.150000
20
0.810000
30
0.0
70
0
0
VERTEX
8
Fiber_Path_Plus4
10
1.150000
20
0.810000
30
0.0
70
0
0
VERTEX
8
Fiber_Path_Plus4
10
1.170000
20
0.796988
30
0.0
70
0
0
VERTEX
8
Fiber_Path_Plus4
10
1.190000
20
0.790729
30
0.0
70
0
0
VERTEX
8
Fiber_Path_Plus4
10
1.210000
20
0.790011
30
0.0
70
0
0
VERTEX
8
Fiber_Path_Plus4
10
1.230000
20
0.790000
30
0.0
70
0
0
VERTEX
8
Fiber_Path_Plus4
10
1.230000
20
0.790000
30
0.0
70
0
0
VERTEX
8
Fiber_Path_Plus4
10
1.250000
20
0.776988
30
0.0
70
0
0
VERTEX
8
Fiber_Path_Plus4
10
1.270000
20
0.770729
30
0.0
70
0
0
VERTEX
8
Fiber_Path_Plus4
10
1.290000
20
0.770011
30
0.0
70
0
0
VERTEX
8
Fiber_Path_Plus4
10
1.310000
20
0.770000
30
0.0
70
0
0
VERTEX
8
Fiber_Path_Plus4
10
1.310000
20
0.770000
30
0.0
70
0
0
VERTEX
8
Fiber_Path_Plus4
10
1.330000
20
0.756988
30
0.0
70
0
0
VERTEX
8
Fiber_Path_Plus4
10
1.350000
20
0.750729
30
0.0
70
0
0
VERTEX
8
Fiber_Path_Plus4
10
1.351205
20
0.750000
30
0.0
70
0
0
VERTEX
8
Fiber_Path_Plus4
10
1.370000
20
0.737104
30
0.0
70
0
0
VERTEX
8
Fiber_Path_Plus4
10
1.390000
20
0.730732
30
0.0
70
0
0
VERTEX
8
Fiber_Path_Plus4
10
1.410000
20
0.730011
30
0.0
70
0
0
VERTEX
8
Fiber_Path_Plus4
10
1.410021
20
0.730000
30
0.0
70
0
0
VERTEX
8
Fiber_Path_Plus4
10
1.430000
20
0.716990
30
0.0
70
0
0
VERTEX
8
Fiber_Path_Plus4
10
1.450000
20
0.710729
30
0.0
70
0
0
VERTEX
8
Fiber_Path_Plus4
10
1.451205
20
0.710000
30
0.0
70
0
0
VERTEX
8
Fiber_Path_Plus4
10
1.470000
20
0.697104
30
0.0
70
0
0
VERTEX
8
Fiber_Path_Plus4
10
1.490000
20
0.690732
30
0.0
70
0
0
VERTEX
8
Fiber_Path_Plus4
10
1.491205
20
0.690000
30
0.0
70
0
0
VERTEX
8
Fiber_Path_Plus4
10
1.510000
20
0.677104
30
0.0
70
0
0
VERTEX
8
Fiber_Path_Plus4
10
1.518284
20
0.670000
30
0.0
70
0
0
VERTEX
8
Fiber_Path_Plus4
10
1.530000
20
0.658284
30
0.0
70
0
0
VERTEX
8
Fiber_Path_Plus4
10
1.538284
20
0.650000
30
0.0
70
0
0
VERTEX
8
Fiber_Path_Plus4
10
1.550000
20
0.638284
30
0.0
70
0
0
VERTEX
8
Fiber_Path_Plus4
10
1.558284
20
0.630000
30
0.0
70
0
0
VERTEX
8
Fiber_Path_Plus4
10
1.570000
20
0.618284
30
0.0
70
0
0
VERTEX
8
Fiber_Path_Plus4
10
1.578284
20
0.610000
30
0.0
70
0
0
VERTEX
8
Fiber_Path_Plus4
10
1.590000
20
0.598284
30
0.0
70
0
0
SEQEND
8
Fiber_Path_Plus4
0
POLYLINE
8
Fiber_Path_Plus4
66
1
70
0
10
0.0
20
0.0
30
0.0
0
VERTEX
8
Fiber_Path_Plus4
10
0.410000
20
0.010000
30
0.0
70
0
0
VERTEX
8
Fiber_Path_Plus4
10
0.430000
20
0.023012
30
0.0
70
0
0
VERTEX
8
Fiber_Path_Plus4
10
0.450000
20
0.029271
30
0.0
70
0
0
VERTEX
8
Fiber_Path_Plus4
10
0.470000
20
0.029989
30
0.0
70
0
0
VERTEX
8
Fiber_Path_Plus4
10
0.470021
20
0.030000
30
0.0
70
0
0
VERTEX
8
Fiber_Path_Plus4
10
0.490000
20
0.043010
30
0.0
70
0
0
VERTEX
8
Fiber_Path_Plus4
10
0.510000
20
0.049271
30
0.0
70
0
0
VERTEX
8
Fiber_Path_Plus4
10
0.530000
20
0.049989
30
0.0
70
0
0
VERTEX
8
Fiber_Path_Plus4
10
0.550000
20
0.050000
30
0.0
70
0
0
VERTEX
8
Fiber_Path_Plus4
10
0.550000
20
0.050000
30
0.0
70
0
0
VERTEX
8
Fiber_Path_Plus4
10
0.570000
20
0.063012
30
0.0
70
0
0
VERTEX
8
Fiber_Path_Plus4
10
0.590000
20
0.069271
30
0.0
70
0
0
VERTEX
8
Fiber_Path_Plus4
10
0.610000
20
0.069989
30
0.0
70
0
0
VERTEX
8
Fiber_Path_Plus4
10
0.610021
20
0.070000
30
0.0
70
0
0
VERTEX
8
Fiber_Path_Plus4
10
0.630000
20
0.083010
30
0.0
70
0
0
VERTEX
8
Fiber_Path_Plus4
10
0.650000
20
0.089271
30
0.0
70
0
0
VERTEX
8
Fiber_Path_Plus4
10
0.670000
20
0.089989
30
0.0
70
0
0
VERTEX
8
Fiber_Path_Plus4
10
0.690000
20
0.090000
30
0.0
70
0
0
VERTEX
8
Fiber_Path_Plus4
10
0.690000
20
0.090000
30
0.0
70
0
0
VERTEX
8
Fiber_Path_Plus4
10
0.710000
20
0.103012
30
0.0
70
0
0
VERTEX
8
Fiber_Path_Plus4
10
0.730000
20
0.109271
30
0.0
70
0
0
VERTEX
8
Fiber_Path_Plus4
10
0.750000
20
0.109989
30
0.0
70
0
0
VERTEX
8
Fiber_Path_Plus4
10
0.770000
20
0.110000
30
0.0
70
0
0
VERTEX
8
Fiber_Path_Plus4
10
0.770000
20
0.110000
30
0.0
70
0
0
VERTEX
8
Fiber_Path_Plus4
10
0.790000
20
0.123012
30
0.0
70
0
0
VERTEX
8
Fiber_Path_Plus4
10
0.810000
20
0.129271
30
0.0
70
0
0
VERTEX
8
Fiber_Path_Plus4
10
0.830000
20
0.129989
30
0.0
70
0
0
VERTEX
8
Fiber_Path_Plus4
10
0.850000
20
0.130000
30
0.0
70
0
0
VERTEX
8
Fiber_Path_Plus4
10
0.850000
20
0.130000
30
0.0
70
0
0
VERTEX
8
Fiber_Path_Plus4
10
0.870000
20
0.143012
30
0.0
70
0
0
VERTEX
8
Fiber_Path_Plus4
10
0.890000
20
0.149271
30
0.0
70
0
0
VERTEX
8
Fiber_Path_Plus4
10
0.910000
20
0.149989
30
0.0
70
0
0
VERTEX
8
Fiber_Path_Plus4
10
0.930000
20
0.150000
30
0.0
70
0
0
VERTEX
8
Fiber_Path_Plus4
10
0.950000
20
0.150000
30
0.0
70
0
0
VERTEX
8
Fiber_Path_Plus4
10
0.950000
20
0.150000
30
0.0
70
0
0
VERTEX
8
Fiber_Path_Plus4
10
0.970000
20
0.163012
30
0.0
70
0
0
VERTEX
8
Fiber_Path_Plus4
10
0.990000
20
0.169271
30
0.0
70
0
0
VERTEX
8
Fiber_Path_Plus4
10
1.010000
20
0.169989
30
0.0
70
0
0
VERTEX
8
Fiber_Path_Plus4
10
1.030000
20
0.170000
30
0.0
70
0
0
VERTEX
8
Fiber_Path_Plus4
10
1.050000
20
0.170000
30
0.0
70
0
0
VERTEX
8
Fiber_Path_Plus4
10
1.070000
20
0.170000
30
0.0
70
0
0
VERTEX
8
Fiber_Path_Plus4
10
1.090000
20
0.183012
30
0.0
70
0
0
VERTEX
8
Fiber_Path_Plus4
10
1.110000
20
0.189271
30
0.0
70
0
0
VERTEX
8
Fiber_Path_Plus4
10
1.130000
20
0.189989
30
0.0
70
0
0
VERTEX
8
Fiber_Path_Plus4
10
1.150000
20
0.190000
30
0.0
70
0
0
VERTEX
8
Fiber_Path_Plus4
10
1.150000
20
0.190000
30
0.0
70
0
0
VERTEX
8
Fiber_Path_Plus4
10
1.170000
20
0.203012
30
0.0
70
0
0
VERTEX
8
Fiber_Path_Plus4
10
1.190000
20
0.209271
30
0.0
70
0
0
VERTEX
8
Fiber_Path_Plus4
10
1.210000
20
0.209989
30
0.0
70
0
0
VERTEX
8
Fiber_Path_Plus4
10
1.230000
20
0.210000
30
0.0
70
0
0
VERTEX
8
Fiber_Path_Plus4
10
1.230000
20
0.210000
30
0.0
70
0
0
VERTEX
8
Fiber_Path_Plus4
10
1.250000
20
0.223012
30
0.0
70
0
0
VERTEX
8
Fiber_Path_Plus4
10
1.270000
20
0.229271
30
0.0
70
0
0
VERTEX
8
Fiber_Path_Plus4
10
1.290000
20
0.229989
30
0.0
70
0
0
VERTEX
8
Fiber_Path_Plus4
10
1.310000
20
0.230000
30
0.0
70
0
0
VERTEX
8
Fiber_Path_Plus4
10
1.310000
20
0.230000
30
0.0
70
0
0
VERTEX
8
Fiber_Path_Plus4
10
1.330000
20
0.243012
30
0.0
70
0
0
VERTEX
8
Fiber_Path_Plus4
10
1.350000
20
0.249271
30
0.0
70
0
0
VERTEX
8
Fiber_Path_Plus4
10
1.351205
20
0.250000
30
0.0
70
0
0
VERTEX
8
Fiber_Path_Plus4
10
1.370000
20
0.262896
30
0.0
70
0
0
VERTEX
8
Fiber_Path_Plus4
10
1.390000
20
0.269268
30
0.0
70
0
0
VERTEX
8
Fiber_Path_Plus4
10
1.410000
20
0.269989
30
0.0
70
0
0
VERTEX
8
Fiber_Path_Plus4
10
1.410021
20
0.270000
30
0.0
70
0
0
VERTEX
8
Fiber_Path_Plus4
10
1.430000
20
0.283010
30
0.0
70
0
0
VERTEX
8
Fiber_Path_Plus4
10
1.450000
20
0.289271
30
0.0
70
0
0
VERTEX
8
Fiber_Path_Plus4
10
1.451205
20
0.290000
30
0.0
70
0
0
VERTEX
8
Fiber_Path_Plus4
10
1.470000
20
0.302896
30
0.0
70
0
0
VERTEX
8
Fiber_Path_Plus4
10
1.490000
20
0.309268
30
0.0
70
0
0
VERTEX
8
Fiber_Path_Plus4
10
1.491205
20
0.310000
30
0.0
70
0
0
VERTEX
8
Fiber_Path_Plus4
10
1.510000
20
0.322896
30
0.0
70
0
0
VERTEX
8
Fiber_Path_Plus4
10
1.518284
20
0.330000
30
0.0
70
0
0
VERTEX
8
Fiber_Path_Plus4
10
1.530000
20
0.341716
30
0.0
70
0
0
VERTEX
8
Fiber_Path_Plus4
10
1.538284
20
0.350000
30
0.0
70
0
0
VERTEX
8
Fiber_Path_Plus4
10
1.550000
20
0.361716
30
0.0
70
0
0
VERTEX
8
Fiber_Path_Plus4
10
1.558284
20
0.370000
30
0.0
70
0
0
VERTEX
8
Fiber_Path_Plus4
10
1.570000
20
0.381716
30
0.0
70
0
0
VERTEX
8
Fiber_Path_Plus4
10
1.578284
20
0.390000
30
0.0
70
0
0
VERTEX
8
Fiber_Path_Plus4
10
1.590000
20
0.401716
30
0.0
70
0
0
SEQEND
8
Fiber_Path_Plus4
0
POLYLINE
8
Fiber_Path_Plus4
66
1
70
0
10
0.0
20
0.0
30
0.0
0
VERTEX
8
Fiber_Path_Plus4
10
0.010000
20
0.089979
30
0.0
70
0
0
VERTEX
8
Fiber_Path_Plus4
10
0.023010
20
0.070000
30
0.0
70
0
0
VERTEX
8
Fiber_Path_Plus4
10
0.010000
20
0.067076
30
0.0
70
0
0
SEQEND
8
Fiber_Path_Plus4
0
POLYLINE
8
Fiber_Path_Plus4
66
1
70
0
10
0.0
20
0.0
30
0.0
0
VERTEX
8
Fiber_Path_Plus4
10
0.050000
20
0.690000
30
0.0
70
0
0
VERTEX
8
Fiber_Path_Plus4
10
0.050000
20
0.710000
30
0.0
70
0
0
VERTEX
8
Fiber_Path_Plus4
10
0.050000
20
0.730000
30
0.0
70
0
0
VERTEX
8
Fiber_Path_Plus4
10
0.050011
20
0.750000
30
0.0
70
0
0
VERTEX
8
Fiber_Path_Plus4
10
0.050762
20
0.770000
30
0.0
70
0
0
VERTEX
8
Fiber_Path_Plus4
10
0.058284
20
0.790000
30
0.0
70
0
0
VERTEX
8
Fiber_Path_Plus4
10
0.070000
20
0.801716
30
0.0
70
0
0
VERTEX
8
Fiber_Path_Plus4
10
0.090000
20
0.809238
30
0.0
70
0
0
VERTEX
8
Fiber_Path_Plus4
10
0.110000
20
0.803012
30
0.0
70
0
0
VERTEX
8
Fiber_Path_Plus4
10
0.130000
20
0.790000
30
0.0
70
0
0
VERTEX
8
Fiber_Path_Plus4
10
0.130000
20
0.790000
30
0.0
70
0
0
VERTEX
8
Fiber_Path_Plus4
10
0.150000
20
0.789989
30
0.0
70
0
0
VERTEX
8
Fiber_Path_Plus4
10
0.170000
20
0.789238
30
0.0
70
0
0
VERTEX
8
Fiber_Path_Plus4
10
0.190000
20
0.781716
30
0.0
70
0
0
VERTEX
8
Fiber_Path_Plus4
10
0.201716
20
0.770000
30
0.0
70
0
0
VERTEX
8
Fiber_Path_Plus4
10
0.210000
20
0.763012
30
0.0
70
0
0
VERTEX
8
Fiber_Path_Plus4
10
0.230000
20
0.750000
30
0.0
70
0
0
VERTEX
8
Fiber_Path_Plus4
10
0.230000
20
0.750000
30
0.0
70
0
0
VERTEX
8
Fiber_Path_Plus4
10
0.250000
20
0.749989
30
0.0
70
0
0
VERTEX
8
Fiber_Path_Plus4
10
0.270000
20
0.749271
30
0.0
70
0
0
VERTEX
8
Fiber_Path_Plus4
10
0.290000
20
0.743010
30
0.0
70
0
0
VERTEX
8
Fiber_Path_Plus4
10
0.309979
20
0.730000
30
0.0
70
0
0
VERTEX
8
Fiber_Path_Plus4
10
0.310000
20
0.729989
30
0.0
70
0
0
VERTEX
8
Fiber_Path_Plus4
10
0.330000
20
0.729268
30
0.0
70
0
0
VERTEX
8
Fiber_Path_Plus4
10
0.350000
20
0.722896
30
0.0
70
0
0
VERTEX
8
Fiber_Path_Plus4
10
0.368795
20
0.710000
30
0.0
70
0
0
VERTEX
8
Fiber_Path_Plus4
10
0.370000
20
0.709271
30
0.0
70
0
0
VERTEX
8
Fiber_Path_Plus4
10
0.390000
20
0.703012
30
0.0
70
0
0
VERTEX
8
Fiber_Path_Plus4
10
0.410000
20
0.690000
30
0.0
70
0
0
VERTEX
8
Fiber_Path_Plus4
10
0.410000
20
0.690000
30
0.0
70
0
0
VERTEX
8
Fiber_Path_Plus4
10
0.430000
20
0.690000
30
0.0
70
0
0
VERTEX
8
Fiber_Path_Plus4
10
0.450000
20
0.689989
30
0.0
70
0
0
VERTEX
8
Fiber_Path_Plus4
10
0.470000
20
0.689268
30
0.0
70
0
0
VERTEX
8
Fiber_Path_Plus4
10
0.490000
20
0.682896
30
0.0
70
0
0
VERTEX
8
Fiber_Path_Plus4
10
0.508795
20
0.670000
30
0.0
70
0
0
VERTEX
8
Fiber_Path_Plus4
10
0.510000
20
0.669271
30
0.0
70
0
0
VERTEX
8
Fiber_Path_Plus4
10
0.530000
20
0.663010
30
0.0
70
0
0
VERTEX
8
Fiber_Path_Plus4
10
0.549979
20
0.650000
30
0.0
70
0
0
VERTEX
8
Fiber_Path_Plus4
10
0.550000
20
0.649989
30
0.0
70
0
0
VERTEX
8
Fiber_Path_Plus4
10
0.570000
20
0.649271
30
0.0
70
0
0
VERTEX
8
Fiber_Path_Plus4
10
0.590000
20
0.643012
30
0.0
70
0
0
VERTEX
8
Fiber_Path_Plus4
10
0.610000
20
0.630000
30
0.0
70
0
0
VERTEX
8
Fiber_Path_Plus4
10
0.610000
20
0.630000
30
0.0
70
0
0
VERTEX
8
Fiber_Path_Plus4
10
0.630000
20
0.629989
30
0.0
70
0
0
VERTEX
8
Fiber_Path_Plus4
10
0.650000
20
0.629271
30
0.0
70
0
0
VERTEX
8
Fiber_Path_Plus4
10
0.670000
20
0.623010
30
0.0
70
0
0
VERTEX
8
Fiber_Path_Plus4
10
0.689979
20
0.610000
30
0.0
70
0
0
VERTEX
8
Fiber_Path_Plus4
10
0.690000
20
0.609989
30
0.0
70
0
0
VERTEX
8
Fiber_Path_Plus4
10
0.710000
20
0.609268
30
0.0
70
0
0
VERTEX
8
Fiber_Path_Plus4
10
0.730000
20
0.602896
30
0.0
70
0
0
VERTEX
8
Fiber_Path_Plus4
10
0.748795
20
0.590000
30
0.0
70
0
0
VERTEX
8
Fiber_Path_Plus4
10
0.750000
20
0.589271
30
0.0
70
0
0
VERTEX
8
Fiber_Path_Plus4
10
0.770000
20
0.583010
30
0.0
70
0
0
VERTEX
8
Fiber_Path_Plus4
10
0.789979
20
0.570000
30
0.0
70
0
0
VERTEX
8
Fiber_Path_Plus4
10
0.790000
20
0.569989
30
0.0
70
0
0
VERTEX
8
Fiber_Path_Plus4
10
0.810000
20
0.569268
30
0.0
70
0
0
VERTEX
8
Fiber_Path_Plus4
10
0.830000
20
0.562896
30
0.0
70
0
0
VERTEX
8
Fiber_Path_Plus4
10
0.848795
20
0.550000
30
0.0
70
0
0
VERTEX
8
Fiber_Path_Plus4
10
0.850000
20
0.549238
30
0.0
70
0
0
VERTEX
8
Fiber_Path_Plus4
10
0.870000
20
0.541716
30
0.0
70
0
0
VERTEX
8
Fiber_Path_Plus4
10
0.881716
20
0.530000
30
0.0
70
0
0
VERTEX
8
Fiber_Path_Plus4
10
0.890000
20
0.521716
30
0.0
70
0
0
VERTEX
8
Fiber_Path_Plus4
10
0.901716
20
0.510000
30
0.0
70
0
0
VERTEX
8
Fiber_Path_Plus4
10
0.901716
20
0.490000
30
0.0
70
0
0
VERTEX
8
Fiber_Path_Plus4
10
0.890000
20
0.478284
30
0.0
70
0
0
VERTEX
8
Fiber_Path_Plus4
10
0.881716
20
0.470000
30
0.0
70
0
0
VERTEX
8
Fiber_Path_Plus4
10
0.870000
20
0.458284
30
0.0
70
0
0
VERTEX
8
Fiber_Path_Plus4
10
0.850000
20
0.450762
30
0.0
70
0
0
VERTEX
8
Fiber_Path_Plus4
10
0.848795
20
0.450000
30
0.0
70
0
0
VERTEX
8
Fiber_Path_Plus4
10
0.830000
20
0.437104
30
0.0
70
0
0
VERTEX
8
Fiber_Path_Plus4
10
0.810000
20
0.430732
30
0.0
70
0
0
VERTEX
8
Fiber_Path_Plus4
10
0.790000
20
0.430011
30
0.0
70
0
0
VERTEX
8
Fiber_Path_Plus4
10
0.789979
20
0.430000
30
0.0
70
0
0
VERTEX
8
Fiber_Path_Plus4
10
0.770000
20
0.416990
30
0.0
70
0
0
VERTEX
8
Fiber_Path_Plus4
10
0.750000
20
0.410729
30
0.0
70
0
0
VERTEX
8
Fiber_Path_Plus4
10
0.748795
20
0.410000
30
0.0
70
0
0
VERTEX
8
Fiber_Path_Plus4
10
0.730000
20
0.397104
30
0.0
70
0
0
VERTEX
8
Fiber_Path_Plus4
10
0.710000
20
0.390732
30
0.0
70
0
0
VERTEX
8
Fiber_Path_Plus4
10
0.690000
20
0.390011
30
0.0
70
0
0
VERTEX
8
Fiber_Path_Plus4
10
0.689979
20
0.390000
30
0.0
70
0
0
VERTEX
8
Fiber_Path_Plus4
10
0.670000
20
0.376990
30
0.0
70
0
0
VERTEX
8
Fiber_Path_Plus4
10
0.650000
20
0.370729
30
0.0
70
0
0
VERTEX
8
Fiber_Path_Plus4
10
0.630000
20
0.370011
30
0.0
70
0
0
VERTEX
8
Fiber_Path_Plus4
10
0.610000
20
0.370000
30
0.0
70
0
0
VERTEX
8
Fiber_Path_Plus4
10
0.610000
20
0.370000
30
0.0
70
0
0
VERTEX
8
Fiber_Path_Plus4
10
0.590000
20
0.356988
30
0.0
70
0
0
VERTEX
8
Fiber_Path_Plus4
10
0.570000
20
0.350729
30
0.0
70
0
0
VERTEX
8
Fiber_Path_Plus4
10
0.550000
20
0.350011
30
0.0
70
0
0
VERTEX
8
Fiber_Path_Plus4
10
0.549979
20
0.350000
30
0.0
70
0
0
VERTEX
8
Fiber_Path_Plus4
10
0.530000
20
0.336990
30
0.0
70
0
0
VERTEX
8
Fiber_Path_Plus4
10
0.510000
20
0.330729
30
0.0
70
0
0
VERTEX
8
Fiber_Path_Plus4
10
0.490000
20
0.330011
30
0.0
70
0
0
VERTEX
8
Fiber_Path_Plus4
10
0.489979
20
0.330000
30
0.0
70
0
0
VERTEX
8
Fiber_Path_Plus4
10
0.470000
20
0.316990
30
0.0
70
0
0
VERTEX
8
Fiber_Path_Plus4
10
0.450000
20
0.310729
30
0.0
70
0
0
VERTEX
8
Fiber_Path_Plus4
10
0.430000
20
0.310011
30
0.0
70
0
0
VERTEX
8
Fiber_Path_Plus4
10
0.410000
20
0.310000
30
0.0
70
0
0
VERTEX
8
Fiber_Path_Plus4
10
0.410000
20
0.310000
30
0.0
70
0
0
VERTEX
8
Fiber_Path_Plus4
10
0.390000
20
0.296988
30
0.0
70
0
0
VERTEX
8
Fiber_Path_Plus4
10
0.370000
20
0.290729
30
0.0
70
0
0
VERTEX
8
Fiber_Path_Plus4
10
0.350000
20
0.290011
30
0.0
70
0
0
VERTEX
8
Fiber_Path_Plus4
10
0.349979
20
0.290000
30
0.0
70
0
0
VERTEX
8
Fiber_Path_Plus4
10
0.330000
20
0.276990
30
0.0
70
0
0
VERTEX
8
Fiber_Path_Plus4
10
0.310000
20
0.270729
30
0.0
70
0
0
VERTEX
8
Fiber_Path_Plus4
10
0.290000
20
0.270011
30
0.0
70
0
0
VERTEX
8
Fiber_Path_Plus4
10
0.289979
20
0.270000
30
0.0
70
0
0
VERTEX
8
Fiber_Path_Plus4
10
0.270000
20
0.256990
30
0.0
70
0
0
VERTEX
8
Fiber_Path_Plus4
10
0.250000
20
0.250729
30
0.0
70
0
0
VERTEX
8
Fiber_Path_Plus4
10
0.230000
20
0.250011
30
0.0
70
0
0
VERTEX
8
Fiber_Path_Plus4
10
0.229979
20
0.250000
30
0.0
70
0
0
VERTEX
8
Fiber_Path_Plus4
10
0.210000
20
0.236990
30
0.0
70
0
0
VERTEX
8
Fiber_Path_Plus4
10
0.190000
20
0.230729
30
0.0
70
0
0
VERTEX
8
Fiber_Path_Plus4
10
0.188795
20
0.230000
30
0.0
70
0
0
VERTEX
8
Fiber_Path_Plus4
10
0.170000
20
0.217104
30
0.0
70
0
0
VERTEX
8
Fiber_Path_Plus4
10
0.150000
20
0.210732
30
0.0
70
0
0
VERTEX
8
Fiber_Path_Plus4
10
0.130000
20
0.210011
30
0.0
70
0
0
VERTEX
8
Fiber_Path_Plus4
10
0.129979
20
0.210000
30
0.0
70
0
0
VERTEX
8
Fiber_Path_Plus4
10
0.110000
20
0.196990
30
0.0
70
0
0
VERTEX
8
Fiber_Path_Plus4
10
0.090000
20
0.190729
30
0.0
70
0
0
VERTEX
8
Fiber_Path_Plus4
10
0.088480
20
0.190000
30
0.0
70
0
0
VERTEX
8
Fiber_Path_Plus4
10
0.070000
20
0.178284
30
0.0
70
0
0
VERTEX
8
Fiber_Path_Plus4
10
0.058284
20
0.190000
30
0.0
70
0
0
VERTEX
8
Fiber_Path_Plus4
10
0.050762
20
0.210000
30
0.0
70
0
0
VERTEX
8
Fiber_Path_Plus4
10
0.050011
20
0.230000
30
0.0
70
0
0
VERTEX
8
Fiber_Path_Plus4
10
0.050000
20
0.250000
30
0.0
70
0
0
VERTEX
8
Fiber_Path_Plus4
10
0.050000
20
0.270000
30
0.0
70
0
0
VERTEX
8
Fiber_Path_Plus4
10
0.050000
20
0.290000
30
0.0
70
0
0
VERTEX
8
Fiber_Path_Plus4
10
0.050000
20
0.310000
30
0.0
70
0
0
VERTEX
8
Fiber_Path_Plus4
10
0.050000
20
0.330000
30
0.0
70
0
0
VERTEX
8
Fiber_Path_Plus4
10
0.050000
20
0.350000
30
0.0
70
0
0
VERTEX
8
Fiber_Path_Plus4
10
0.050000
20
0.370000
30
0.0
70
0
0
VERTEX
8
Fiber_Path_Plus4
10
0.050000
20
0.390000
30
0.0
70
0
0
VERTEX
8
Fiber_Path_Plus4
10
0.050000
20
0.410000
30
0.0
70
0
0
VERTEX
8
Fiber_Path_Plus4
10
0.050000
20
0.430000
30
0.0
70
0
0
VERTEX
8
Fiber_Path_Plus4
10
0.050000
20
0.450000
30
0.0
70
0
0
VERTEX
8
Fiber_Path_Plus4
10
0.050000
20
0.470000
30
0.0
70
0
0
VERTEX
8
Fiber_Path_Plus4
10
0.050000
20
0.490000
30
0.0
70
0
0
VERTEX
8
Fiber_Path_Plus4
10
0.050000
20
0.510000
30
0.0
70
0
0
VERTEX
8
Fiber_Path_Plus4
10
0.050000
20
0.530000
30
0.0
70
0
0
VERTEX
8
Fiber_Path_Plus4
10
0.050000
20
0.550000
30
0.0
70
0
0
VERTEX
8
Fiber_Path_Plus4
10
0.050000
20
0.570000
30
0.0
70
0
0
VERTEX
8
Fiber_Path_Plus4
10
0.050000
20
0.590000
30
0.0
70
0
0
VERTEX
8
Fiber_Path_Plus4
10
0.050000
20
0.610000
30
0.0
70
0
0
VERTEX
8
Fiber_Path_Plus4
10
0.050000
20
0.630000
30
0.0
70
0
0
VERTEX
8
Fiber_Path_Plus4
10
0.050000
20
0.650000
30
0.0
70
0
0
VERTEX
8
Fiber_Path_Plus4
10
0.050000
20
0.670000
30
0.0
70
0
0
VERTEX
8
Fiber_Path_Plus4
10
0.050000
20
0.690000
30
0.0
70
0
0
SEQEND
8
Fiber_Path_Plus4
0
POLYLINE
8
Fiber_Path_Plus4
66
1
70
0
10
0.0
20
0.0
30
0.0
0
VERTEX
8
Fiber_Path_Plus4
10
0.990000
20
0.510000
30
0.0
70
0
0
VERTEX
8
Fiber_Path_Plus4
10
0.990000
20
0.490000
30
0.0
70
0
0
VERTEX
8
Fiber_Path_Plus4
10
0.990000
20
0.510000
30
0.0
70
0
0
SEQEND
8
Fiber_Path_Plus4
0
POLYLINE
8
Fiber_Path_Plus5
66
1
70
0
10
0.0
20
0.0
30
0.0
0
VERTEX
8
Fiber_Path_Plus5
10
0.053431
20
0.010000
30
0.0
70
0
0
VERTEX
8
Fiber_Path_Plus5
10
0.050000
20
0.013431
30
0.0
70
0
0
VERTEX
8
Fiber_Path_Plus5
10
0.033431
20
0.030000
30
0.0
70
0
0
VERTEX
8
Fiber_Path_Plus5
10
0.030000
20
0.033431
30
0.0
70
0
0
VERTEX
8
Fiber_Path_Plus5
10
0.010000
20
0.033407
30
0.0
70
0
0
SEQEND
8
Fiber_Path_Plus5
0
POLYLINE
8
Fiber_Path_Plus5
66
1
70
0
10
0.0
20
0.0
30
0.0
0
VERTEX
8
Fiber_Path_Plus5
10
0.470240
20
0.990000
30
0.0
70
0
0
VERTEX
8
Fiber_Path_Plus5
10
0.490000
20
0.980163
30
0.0
70
0
0
VERTEX
8
Fiber_Path_Plus5
10
0.510000
20
0.972153
30
0.0
70
0
0
VERTEX
8
Fiber_Path_Plus5
10
0.530000
20
0.970102
30
0.0
70
0
0
VERTEX
8
Fiber_Path_Plus5
10
0.550000
20
0.970000
30
0.0
70
0
0
VERTEX
8
Fiber_Path_Plus5
10
0.550001
20
0.970000
30
0.0
70
0
0
VERTEX
8
Fiber_Path_Plus5
10
0.570000
20
0.960139
30
0.0
70
0
0
VERTEX
8
Fiber_Path_Plus5
10
0.590000
20
0.952150
30
0.0
70
0
0
VERTEX
8
Fiber_Path_Plus5
10
0.610000
20
0.950102
30
0.0
70
0
0
VERTEX
8
Fiber_Path_Plus5
10
0.610225
20
0.950000
30
0.0
70
0
0
VERTEX
8
Fiber_Path_Plus5
10
0.630000
20
0.940162
30
0.0
70
0
0
VERTEX
8
Fiber_Path_Plus5
10
0.650000
20
0.932153
30
0.0
70
0
0
VERTEX
8
Fiber_Path_Plus5
10
0.670000
20
0.930102
30
0.0
70
0
0
VERTEX
8
Fiber_Path_Plus5
10
0.690000
20
0.930000
30
0.0
70
0
0
VERTEX
8
Fiber_Path_Plus5
10
0.690001
20
0.930000
30
0.0
70
0
0
VERTEX
8
Fiber_Path_Plus5
10
0.710000
20
0.920139
30
0.0
70
0
0
VERTEX
8
Fiber_Path_Plus5
10
0.730000
20
0.912150
30
0.0
70
0
0
VERTEX
8
Fiber_Path_Plus5
10
0.750000
20
0.910102
30
0.0
70
0
0
VERTEX
8
Fiber_Path_Plus5
10
0.770000
20
0.910000
30
0.0
70
0
0
VERTEX
8
Fiber_Path_Plus5
10
0.770001
20
0.910000
30
0.0
70
0
0
VERTEX
8
Fiber_Path_Plus5
10
0.790000
20
0.900139
30
0.0
70
0
0
VERTEX
8
Fiber_Path_Plus5
10
0.810000
20
0.892150
30
0.0
70
0
0
VERTEX
8
Fiber_Path_Plus5
10
0.830000
20
0.890102
30
0.0
70
0
0
VERTEX
8
Fiber_Path_Plus5
10
0.850000
20
0.890000
30
0.0
70
0
0
VERTEX
8
Fiber_Path_Plus5
10
0.850001
20
0.890000
30
0.0
70
0
0
VERTEX
8
Fiber_Path_Plus5
10
0.870000
20
0.880139
30
0.0
70
0
0
VERTEX
8
Fiber_Path_Plus5
10
0.890000
20
0.872150
30
0.0
70
0
0
VERTEX
8
Fiber_Path_Plus5
10
0.910000
20
0.870102
30
0.0
70
0
0
VERTEX
8
Fiber_Path_Plus5
10
0.930000
20
0.870000
30
0.0
70
0
0
VERTEX
8
Fiber_Path_Plus5
10
0.950000
20
0.870000
30
0.0
70
0
0
VERTEX
8
Fiber_Path_Plus5
10
0.950000
20
0.870000
30
0.0
70
0
0
VERTEX
8
Fiber_Path_Plus5
10
0.970000
20
0.860139
30
0.0
70
0
0
VERTEX
8
Fiber_Path_Plus5
10
0.990000
20
0.852150
30
0.0
70
0
0
VERTEX
8
Fiber_Path_Plus5
10
1.010000
20
0.850102
30
0.0
70
0
0
VERTEX
8
Fiber_Path_Plus5
10
1.030000
20
0.850000
30
0.0
70
0
0
VERTEX
8
Fiber_Path_Plus5
10
1.050000
20
0.850000
30
0.0
70
0
0
VERTEX
8
Fiber_Path_Plus5
10
1.070000
20
0.850000
30
0.0
70
0
0
VERTEX
8
Fiber_Path_Plus5
10
1.090000
20
0.840139
30
0.0
70
0
0
VERTEX
8
Fiber_Path_Plus5
10
1.110000
20
0.832150
30
0.0
70
0
0
VERTEX
8
Fiber_Path_Plus5
10
1.130000
20
0.830102
30
0.0
70
0
0
VERTEX
8
Fiber_Path_Plus5
10
1.150000
20
0.830000
30
0.0
70
0
0
VERTEX
8
Fiber_Path_Plus5
10
1.150001
20
0.830000
30
0.0
70
0
0
VERTEX
8
Fiber_Path_Plus5
10
1.170000
20
0.820139
30
0.0
70
0
0
VERTEX
8
Fiber_Path_Plus5
10
1.190000
20
0.812150
30
0.0
70
0
0
VERTEX
8
Fiber_Path_Plus5
10
1.210000
20
0.810102
30
0.0
70
0
0
VERTEX
8
Fiber_Path_Plus5
10
1.230000
20
0.810000
30
0.0
70
0
0
VERTEX
8
Fiber_Path_Plus5
10
1.230001
20
0.810000
30
0.0
70
0
0
VERTEX
8
Fiber_Path_Plus5
10
1.250000
20
0.800139
30
0.0
70
0
0
VERTEX
8
Fiber_Path_Plus5
10
1.270000
20
0.792150
30
0.0
70
0
0
VERTEX
8
Fiber_Path_Plus5
10
1.290000
20
0.790102
30
0.0
70
0
0
VERTEX
8
Fiber_Path_Plus5
10
1.310000
20
0.790000
30
0.0
70
0
0
VERTEX
8
Fiber_Path_Plus5
10
1.310001
20
0.790000
30
0.0
70
0
0
VERTEX
8
Fiber_Path_Plus5
10
1.330000
20
0.780139
30
0.0
70
0
0
VERTEX
8
Fiber_Path_Plus5
10
1.350000
20
0.772150
30
0.0
70
0
0
VERTEX
8
Fiber_Path_Plus5
10
1.353988
20
0.770000
30
0.0
70
0
0
VERTEX
8
Fiber_Path_Plus5
10
1.370000
20
0.760802
30
0.0
70
0
0
VERTEX
8
Fiber_Path_Plus5
10
1.390000
20
0.752262
30
0.0
70
0
0
VERTEX
8
Fiber_Path_Plus5
10
1.410000
20
0.750109
30
0.0
70
0
0
VERTEX
8
Fiber_Path_Plus5
10
1.410240
20
0.750000
30
0.0
70
0
0
VERTEX
8
Fiber_Path_Plus5
10
1.430000
20
0.740163
30
0.0
70
0
0
VERTEX
8
Fiber_Path_Plus5
10
1.450000
20
0.732153
30
0.0
70
0
0
VERTEX
8
Fiber_Path_Plus5
10
1.453991
20
0.730000
30
0.0
70
0
0
VERTEX
8
Fiber_Path_Plus5
10
1.470000
20
0.720802
30
0.0
70
0
0
VERTEX
8
Fiber_Path_Plus5
10
1.490000
20
0.712262
30
0.0
70
0
0
VERTEX
8
Fiber_Path_Plus5
10
1.494121
20
0.710000
30
0.0
70
0
0
VERTEX
8
Fiber_Path_Plus5
10
1.510000
20
0.700819
30
0.0
70
0
0
VERTEX
8
Fiber_Path_Plus5
10
1.524501
20
0.690000
30
0.0
70
0
0
VERTEX
8
Fiber_Path_Plus5
10
1.530000
20
0.685347
30
0.0
70
0
0
VERTEX
8
Fiber_Path_Plus5
10
1.546569
20
0.670000
30
0.0
70
0
0
VERTEX
8
Fiber_Path_Plus5
10
1.550000
20
0.666569
30
0.0
70
0
0
VERTEX
8
Fiber_Path_Plus5
10
1.566569
20
0.650000
30
0.0
70
0
0
VERTEX
8
Fiber_Path_Plus5
10
1.570000
20
0.646569
30
0.0
70
0
0
VERTEX
8
Fiber_Path_Plus5
10
1.586569
20
0.630000
30
0.0
70
0
0
VERTEX
8
Fiber_Path_Plus5
10
1.590000
20
0.626569
30
0.0
70
0
0
SEQEND
8
Fiber_Path_Plus5
0
POLYLINE
8
Fiber_Path_Plus5
66
1
70
0
10
0.0
20
0.0
30
0.0
0
VERTEX
8
Fiber_Path_Plus5
10
0.470225
20
0.010000
30
0.0
70
0
0
VERTEX
8
Fiber_Path_Plus5
10
0.490000
20
0.019838
30
0.0
70
0
0
VERTEX
8
Fiber_Path_Plus5
10
0.510000
20
0.027847
30
0.0
70
0
0
VERTEX
8
Fiber_Path_Plus5
10
0.530000
20
0.029898
30
0.0
70
0
0
VERTEX
8
Fiber_Path_Plus5
10
0.550000
20
0.030000
30
0.0
70
0
0
VERTEX
8
Fiber_Path_Plus5
10
0.550001
20
0.030000
30
0.0
70
0
0
VERTEX
8
Fiber_Path_Plus5
10
0.570000
20
0.039861
30
0.0
70
0
0
VERTEX
8
Fiber_Path_Plus5
10
0.590000
20
0.047850
30
0.0
70
0
0
VERTEX
8
Fiber_Path_Plus5
10
0.610000
20
0.049898
30
0.0
70
0
0
VERTEX
8
Fiber_Path_Plus5
10
0.610225
20
0.050000
30
0.0
70
0
0
VERTEX
8
Fiber_Path_Plus5
10
0.630000
20
0.059838
30
0.0
70
0
0
VERTEX
8
Fiber_Path_Plus5
10
0.650000
20
0.067847
30
0.0
70
0
0
VERTEX
8
Fiber_Path_Plus5
10
0.670000
20
0.069898
30
0.0
70
0
0
VERTEX
8
Fiber_Path_Plus5
10
0.690000
20
0.070000
30
0.0
70
0
0
VERTEX
8
Fiber_Path_Plus5
10
0.690001
20
0.070000
30
0.0
70
0
0
VERTEX
8
Fiber_Path_Plus5
10
0.710000
20
0.079861
30
0.0
70
0
0
VERTEX
8
Fiber_Path_Plus5
10
0.730000
20
0.087850
30
0.0
70
0
0
VERTEX
8
Fiber_Path_Plus5
10
0.750000
20
0.089898
30
0.0
70
0
0
VERTEX
8
Fiber_Path_Plus5
10
0.770000
20
0.090000
30
0.0
70
0
0
VERTEX
8
Fiber_Path_Plus5
10
0.770001
20
0.090000
30
0.0
70
0
0
VERTEX
8
Fiber_Path_Plus5
10
0.790000
20
0.099861
30
0.0
70
0
0
VERTEX
8
Fiber_Path_Plus5
10
0.810000
20
0.107850
30
0.0
70
0
0
VERTEX
8
Fiber_Path_Plus5
10
0.830000
20
0.109898
30
0.0
70
0
0
VERTEX
8
Fiber_Path_Plus5
10
0.850000
20
0.110000
30
0.0
70
0
0
VERTEX
8
Fiber_Path_Plus5
10
0.850001
20
0.110000
30
0.0
70
0
0
VERTEX
8
Fiber_Path_Plus5
10
0.870000
20
0.119861
30
0.0
70
0
0
VERTEX
8
Fiber_Path_Plus5
10
0.890000
20
0.127850
30
0.0
70
0
0
VERTEX
8
Fiber_Path_Plus5
10
0.910000
20
0.129898
30
0.0
70
0
0
VERTEX
8
Fiber_Path_Plus5
10
0.930000
20
0.130000
30
0.0
70
0
0
VERTEX
8
Fiber_Path_Plus5
10
0.950000
20
0.130000
30
0.0
70
0
0
VERTEX
8
Fiber_Path_Plus5
10
0.950000
20
0.130000
30
0.0
70
0
0
VERTEX
8
Fiber_Path_Plus5
10
0.970000
20
0.139861
30
0.0
70
0
0
VERTEX
8
Fiber_Path_Plus5
10
0.990000
20
0.147850
30
0.0
70
0
0
VERTEX
8
Fiber_Path_Plus5
10
1.010000
20
0.149898
30
0.0
70
0
0
VERTEX
8
Fiber_Path_Plus5
10
1.030000
20
0.150000
30
0.0
70
0
0
VERTEX
8
Fiber_Path_Plus5
10
1.050000
20
0.150000
30
0.0
70
0
0
VERTEX
8
Fiber_Path_Plus5
10
1.070000
20
0.150000
30
0.0
70
0
0
VERTEX
8
Fiber_Path_Plus5
10
1.090000
20
0.159861
30
0.0
70
0
0
VERTEX
8
Fiber_Path_Plus5
10
1.110000
20
0.167850
30
0.0
70
0
0
VERTEX
8
Fiber_Path_Plus5
10
1.130000
20
0.169898
30
0.0
70
0
0
VERTEX
8
Fiber_Path_Plus5
10
1.150000
20
0.170000
30
0.0
70
0
0
VERTEX
8
Fiber_Path_Plus5
10
1.150001
20
0.170000
30
0.0
70
0
0
VERTEX
8
Fiber_Path_Plus5
10
1.170000
20
0.179861
30
0.0
70
0
0
VERTEX
8
Fiber_Path_Plus5
10
1.190000
20
0.187850
30
0.0
70
0
0
VERTEX
8
Fiber_Path_Plus5
10
1.210000
20
0.189898
30
0.0
70
0
0
VERTEX
8
Fiber_Path_Plus5
10
1.230000
20
0.190000
30
0.0
70
0
0
VERTEX
8
Fiber_Path_Plus5
10
1.230001
20
0.190000
30
0.0
70
0
0
VERTEX
8
Fiber_Path_Plus5
10
1.250000
20
0.199861
30
0.0
70
0
0
VERTEX
8
Fiber_Path_Plus5
10
1.270000
20
0.207850
30
0.0
70
0
0
VERTEX
8
Fiber_Path_Plus5
10
1.290000
20
0.209898
30
0.0
70
0
0
VERTEX
8
Fiber_Path_Plus5
10
1.310000
20
0.210000
30
0.0
70
0
0
VERTEX
8
Fiber_Path_Plus5
10
1.310001
20
0.210000
30
0.0
70
0
0
VERTEX
8
Fiber_Path_Plus5
10
1.330000
20
0.219861
30
0.0
70
0
0
VERTEX
8
Fiber_Path_Plus5
10
1.350000
20
0.227850
30
0.0
70
0
0
VERTEX
8
Fiber_Path_Plus5
10
1.353988
20
0.230000
30
0.0
70
0
0
VERTEX
8
Fiber_Path_Plus5
10
1.370000
20
0.239198
30
0.0
70
0
0
VERTEX
8
Fiber_Path_Plus5
10
1.390000
20
0.247738
30
0.0
70
0
0
VERTEX
8
Fiber_Path_Plus5
10
1.410000
20
0.249891
30
0.0
70
0
0
VERTEX
8
Fiber_Path_Plus5
10
1.410240
20
0.250000
30
0.0
70
0
0
VERTEX
8
Fiber_Path_Plus5
10
1.430000
20
0.259837
30
0.0
70
0
0
VERTEX
8
Fiber_Path_Plus5
10
1.450000
20
0.267847
30
0.0
70
0
0
VERTEX
8
Fiber_Path_Plus5
10
1.453991
20
0.270000
30
0.0
70
0
0
VERTEX
8
Fiber_Path_Plus5
10
1.470000
20
0.279198
30
0.0
70
0
0
VERTEX
8
Fiber_Path_Plus5
10
1.490000
20
0.287738
30
0.0
70
0
0
VERTEX
8
Fiber_Path_Plus5
10
1.494121
20
0.290000
30
0.0
70
0
0
VERTEX
8
Fiber_Path_Plus5
10
1.510000
20
0.299181
30
0.0
70
0
0
VERTEX
8
Fiber_Path_Plus5
10
1.524501
20
0.310000
30
0.0
70
0
0
VERTEX
8
Fiber_Path_Plus5
10
1.530000
20
0.314653
30
0.0
70
0
0
VERTEX
8
Fiber_Path_Plus5
10
1.546569
20
0.330000
30
0.0
70
0
0
VERTEX
8
Fiber_Path_Plus5
10
1.550000
20
0.333431
30
0.0
70
0
0
VERTEX
8
Fiber_Path_Plus5
10
1.566569
20
0.350000
30
0.0
70
0
0
VERTEX
8
Fiber_Path_Plus5
10
1.570000
20
0.353431
30
0.0
70
0
0
VERTEX
8
Fiber_Path_Plus5
10
1.586569
20
0.370000
30
0.0
70
0
0
VERTEX
8
Fiber_Path_Plus5
10
1.590000
20
0.373431
30
0.0
70
0
0
SEQEND
8
Fiber_Path_Plus5
0
POLYLINE
8
Fiber_Path_Plus5
66
1
70
0
10
0.0
20
0.0
30
0.0
0
VERTEX
8
Fiber_Path_Plus5
10
0.070000
20
0.670000
30
0.0
70
0
0
VERTEX
8
Fiber_Path_Plus5
10
0.070000
20
0.690000
30
0.0
70
0
0
VERTEX
8
Fiber_Path_Plus5
10
0.070000
20
0.710000
30
0.0
70
0
0
VERTEX
8
Fiber_Path_Plus5
10
0.070001
20
0.730000
30
0.0
70
0
0
VERTEX
8
Fiber_Path_Plus5
10
0.070194
20
0.750000
30
0.0
70
0
0
VERTEX
8
Fiber_Path_Plus5
10
0.073940
20
0.770000
30
0.0
70
0
0
VERTEX
8
Fiber_Path_Plus5
10
0.090000
20
0.786060
30
0.0
70
0
0
VERTEX
8
Fiber_Path_Plus5
10
0.110000
20
0.779861
30
0.0
70
0
0
VERTEX
8
Fiber_Path_Plus5
10
0.129998
20
0.770000
30
0.0
70
0
0
VERTEX
8
Fiber_Path_Plus5
10
0.130000
20
0.769999
30
0.0
70
0
0
VERTEX
8
Fiber_Path_Plus5
10
0.150000
20
0.769813
30
0.0
70
0
0
VERTEX
8
Fiber_Path_Plus5
10
0.170000
20
0.766722
30
0.0
70
0
0
VERTEX
8
Fiber_Path_Plus5
10
0.190000
20
0.754777
30
0.0
70
0
0
VERTEX
8
Fiber_Path_Plus5
10
0.195758
20
0.750000
30
0.0
70
0
0
VERTEX
8
Fiber_Path_Plus5
10
0.210000
20
0.739861
30
0.0
70
0
0
VERTEX
8
Fiber_Path_Plus5
10
0.229999
20
0.730000
30
0.0
70
0
0
VERTEX
8
Fiber_Path_Plus5
10
0.230000
20
0.730000
30
0.0
70
0
0
VERTEX
8
Fiber_Path_Plus5
10
0.250000
20
0.729898
30
0.0
70
0
0
VERTEX
8
Fiber_Path_Plus5
10
0.270000
20
0.727847
30
0.0
70
0
0
VERTEX
8
Fiber_Path_Plus5
10
0.290000
20
0.719837
30
0.0
70
0
0
VERTEX
8
Fiber_Path_Plus5
10
0.309760
20
0.710000
30
0.0
70
0
0
VERTEX
8
Fiber_Path_Plus5
10
0.310000
20
0.709891
30
0.0
70
0
0
VERTEX
8
Fiber_Path_Plus5
10
0.330000
20
0.707738
30
0.0
70
0
0
VERTEX
8
Fiber_Path_Plus5
10
0.350000
20
0.699198
30
0.0
70
0
0
VERTEX
8
Fiber_Path_Plus5
10
0.366012
20
0.690000
30
0.0
70
0
0
VERTEX
8
Fiber_Path_Plus5
10
0.370000
20
0.687850
30
0.0
70
0
0
VERTEX
8
Fiber_Path_Plus5
10
0.390000
20
0.679861
30
0.0
70
0
0
VERTEX
8
Fiber_Path_Plus5
10
0.410000
20
0.670000
30
0.0
70
0
0
VERTEX
8
Fiber_Path_Plus5
10
0.410000
20
0.670000
30
0.0
70
0
0
VERTEX
8
Fiber_Path_Plus5
10
0.430000
20
0.670000
30
0.0
70
0
0
VERTEX
8
Fiber_Path_Plus5
10
0.450000
20
0.669891
30
0.0
70
0
0
VERTEX
8
Fiber_Path_Plus5
10
0.470000
20
0.667738
30
0.0
70
0
0
VERTEX
8
Fiber_Path_Plus5
10
0.490000
20
0.659198
30
0.0
70
0
0
VERTEX
8
Fiber_Path_Plus5
10
0.506009
20
0.650000
30
0.0
70
0
0
VERTEX
8
Fiber_Path_Plus5
10
0.510000
20
0.647847
30
0.0
70
0
0
VERTEX
8
Fiber_Path_Plus5
10
0.530000
20
0.639838
30
0.0
70
0
0
VERTEX
8
Fiber_Path_Plus5
10
0.549775
20
0.630000
30
0.0
70
0
0
VERTEX
8
Fiber_Path_Plus5
10
0.550000
20
0.629898
30
0.0
70
0
0
VERTEX
8
Fiber_Path_Plus5
10
0.570000
20
0.627850
30
0.0
70
0
0
VERTEX
8
Fiber_Path_Plus5
10
0.590000
20
0.619861
30
0.0
70
0
0
VERTEX
8
Fiber_Path_Plus5
10
0.609999
20
0.610000
30
0.0
70
0
0
VERTEX
8
Fiber_Path_Plus5
10
0.610000
20
0.610000
30
0.0
70
0
0
VERTEX
8
Fiber_Path_Plus5
10
0.630000
20
0.609898
30
0.0
70
0
0
VERTEX
8
Fiber_Path_Plus5
10
0.650000
20
0.607847
30
0.0
70
0
0
VERTEX
8
Fiber_Path_Plus5
10
0.670000
20
0.599837
30
0.0
70
0
0
VERTEX
8
Fiber_Path_Plus5
10
0.689760
20
0.590000
30
0.0
70
0
0
VERTEX
8
Fiber_Path_Plus5
10
0.690000
20
0.589891
30
0.0
70
0
0
VERTEX
8
Fiber_Path_Plus5
10
0.710000
20
0.587738
30
0.0
70
0
0
VERTEX
8
Fiber_Path_Plus5
10
0.730000
20
0.579198
30
0.0
70
0
0
VERTEX
8
Fiber_Path_Plus5
10
0.746009
20
0.570000
30
0.0
70
0
0
VERTEX
8
Fiber_Path_Plus5
10
0.750000
20
0.567847
30
0.0
70
0
0
VERTEX
8
Fiber_Path_Plus5
10
0.770000
20
0.559837
30
0.0
70
0
0
VERTEX
8
Fiber_Path_Plus5
10
0.789760
20
0.550000
30
0.0
70
0
0
VERTEX
8
Fiber_Path_Plus5
10
0.790000
20
0.549891
30
0.0
70
0
0
VERTEX
8
Fiber_Path_Plus5
10
0.810000
20
0.547727
30
0.0
70
0
0
VERTEX
8
Fiber_Path_Plus5
10
0.830000
20
0.539009
30
0.0
70
0
0
VERTEX
8
Fiber_Path_Plus5
10
0.844675
20
0.530000
30
0.0
70
0
0
VERTEX
8
Fiber_Path_Plus5
10
0.850000
20
0.526625
30
0.0
70
0
0
VERTEX
8
Fiber_Path_Plus5
10
0.870000
20
0.513431
30
0.0
70
0
0
VERTEX
8
Fiber_Path_Plus5
10
0.873431
20
0.510000
30
0.0
70
0
0
VERTEX
8
Fiber_Path_Plus5
10
0.873431
20
0.490000
30
0.0
70
0
0
VERTEX
8
Fiber_Path_Plus5
10
0.870000
20
0.486569
30
0.0
70
0
0
VERTEX
8
Fiber_Path_Plus5
10
0.850000
20
0.473375
30
0.0
70
0
0
VERTEX
8
Fiber_Path_Plus5
10
0.844675
20
0.470000
30
0.0
70
0
0
VERTEX
8
Fiber_Path_Plus5
10
0.830000
20
0.460991
30
0.0
70
0
0
VERTEX
8
Fiber_Path_Plus5
10
0.810000
20
0.452273
30
0.0
70
0
0
VERTEX
8
Fiber_Path_Plus5
10
0.790000
20
0.450109
30
0.0
70
0
0
VERTEX
8
Fiber_Path_Plus5
10
0.789760
20
0.450000
30
0.0
70
0
0
VERTEX
8
Fiber_Path_Plus5
10
0.770000
20
0.440163
30
0.0
70
0
0
VERTEX
8
Fiber_Path_Plus5
10
0.750000
20
0.432153
30
0.0
70
0
0
VERTEX
8
Fiber_Path_Plus5
10
0.746009
20
0.430000
30
0.0
70
0
0
VERTEX
8
Fiber_Path_Plus5
10
0.730000
20
0.420802
30
0.0
70
0
0
VERTEX
8
Fiber_Path_Plus5
10
0.710000
20
0.412262
30
0.0
70
0
0
VERTEX
8
Fiber_Path_Plus5
10
0.690000
20
0.410109
30
0.0
70
0
0
VERTEX
8
Fiber_Path_Plus5
10
0.689760
20
0.410000
30
0.0
70
0
0
VERTEX
8
Fiber_Path_Plus5
10
0.670000
20
0.400163
30
0.0
70
0
0
VERTEX
8
Fiber_Path_Plus5
10
0.650000
20
0.392153
30
0.0
70
0
0
VERTEX
8
Fiber_Path_Plus5
10
0.630000
20
0.390102
30
0.0
70
0
0
VERTEX
8
Fiber_Path_Plus5
10
0.610000
20
0.390000
30
0.0
70
0
0
VERTEX
8
Fiber_Path_Plus5
10
0.609999
20
0.390000
30
0.0
70
0
0
VERTEX
8
Fiber_Path_Plus5
10
0.590000
20
0.380139
30
0.0
70
0
0
VERTEX
8
Fiber_Path_Plus5
10
0.570000
20
0.372150
30
0.0
70
0
0
VERTEX
8
Fiber_Path_Plus5
10
0.550000
20
0.370102
30
0.0
70
0
0
VERTEX
8
Fiber_Path_Plus5
10
0.549775
20
0.370000
30
0.0
70
0
0
VERTEX
8
Fiber_Path_Plus5
10
0.530000
20
0.360162
30
0.0
70
0
0
VERTEX
8
Fiber_Path_Plus5
10
0.510000
20
0.352153
30
0.0
70
0
0
VERTEX
8
Fiber_Path_Plus5
10
0.490000
20
0.350102
30
0.0
70
0
0
VERTEX
8
Fiber_Path_Plus5
10
0.489774
20
0.350000
30
0.0
70
0
0
VERTEX
8
Fiber_Path_Plus5
10
0.470000
20
0.340162
30
0.0
70
0
0
VERTEX
8
Fiber_Path_Plus5
10
0.450000
20
0.332153
30
0.0
70
0
0
VERTEX
8
Fiber_Path_Plus5
10
0.430000
20
0.330102
30
0.0
70
0
0
VERTEX
8
Fiber_Path_Plus5
10
0.410000
20
0.330000
30
0.0
70
0
0
VERTEX
8
Fiber_Path_Plus5
10
0.409999
20
0.330000
30
0.0
70
0
0
VERTEX
8
Fiber_Path_Plus5
10
0.390000
20
0.320139
30
0.0
70
0
0
VERTEX
8
Fiber_Path_Plus5
10
0.370000
20
0.312150
30
0.0
70
0
0
VERTEX
8
Fiber_Path_Plus5
10
0.350000
20
0.310102
30
0.0
70
0
0
VERTEX
8
Fiber_Path_Plus5
10
0.349775
20
0.310000
30
0.0
70
0
0
VERTEX
8
Fiber_Path_Plus5
10
0.330000
20
0.300162
30
0.0
70
0
0
VERTEX
8
Fiber_Path_Plus5
10
0.310000
20
0.292153
30
0.0
70
0
0
VERTEX
8
Fiber_Path_Plus5
10
0.290000
20
0.290102
30
0.0
70
0
0
VERTEX
8
Fiber_Path_Plus5
10
0.289774
20
0.290000
30
0.0
70
0
0
VERTEX
8
Fiber_Path_Plus5
10
0.270000
20
0.280162
30
0.0
70
0
0
VERTEX
8
Fiber_Path_Plus5
10
0.250000
20
0.272153
30
0.0
70
0
0
VERTEX
8
Fiber_Path_Plus5
10
0.230000
20
0.270102
30
0.0
70
0
0
VERTEX
8
Fiber_Path_Plus5
10
0.229774
20
0.270000
30
0.0
70
0
0
VERTEX
8
Fiber_Path_Plus5
10
0.210000
20
0.260162
30
0.0
70
0
0
VERTEX
8
Fiber_Path_Plus5
10
0.190000
20
0.252153
30
0.0
70
0
0
VERTEX
8
Fiber_Path_Plus5
10
0.186009
20
0.250000
30
0.0
70
0
0
VERTEX
8
Fiber_Path_Plus5
10
0.170000
20
0.240802
30
0.0
70
0
0
VERTEX
8
Fiber_Path_Plus5
10
0.150000
20
0.232262
30
0.0
70
0
0
VERTEX
8
Fiber_Path_Plus5
10
0.130000
20
0.230109
30
0.0
70
0
0
VERTEX
8
Fiber_Path_Plus5
10
0.129760
20
0.230000
30
0.0
70
0
0
VERTEX
8
Fiber_Path_Plus5
10
0.110000
20
0.220163
30
0.0
70
0
0
VERTEX
8
Fiber_Path_Plus5
10
0.090000
20
0.212648
30
0.0
70
0
0
VERTEX
8
Fiber_Path_Plus5
10
0.070275
20
0.230000
30
0.0
70
0
0
VERTEX
8
Fiber_Path_Plus5
10
0.070001
20
0.250000
30
0.0
70
0
0
VERTEX
8
Fiber_Path_Plus5
10
0.070000
20
0.270000
30
0.0
70
0
0
VERTEX
8
Fiber_Path_Plus5
10
0.070000
20
0.290000
30
0.0
70
0
0
VERTEX
8
Fiber_Path_Plus5
10
0.070000
20
0.310000
30
0.0
70
0
0
VERTEX
8
Fiber_Path_Plus5
10
0.070000
20
0.330000
30
0.0
70
0
0
VERTEX
8
Fiber_Path_Plus5
10
0.070000
20
0.350000
30
0.0
70
0
0
VERTEX
8
Fiber_Path_Plus5
10
0.070000
20
0.370000
30
0.0
70
0
0
VERTEX
8
Fiber_Path_Plus5
10
0.070000
20
0.390000
30
0.0
70
0
0
VERTEX
8
Fiber_Path_Plus5
10
0.070000
20
0.410000
30
0.0
70
0
0
VERTEX
8
Fiber_Path_Plus5
10
0.070000
20
0.430000
30
0.0
70
0
0
VERTEX
8
Fiber_Path_Plus5
10
0.070000
20
0.450000
30
0.0
70
0
0
VERTEX
8
Fiber_Path_Plus5
10
0.070000
20
0.470000
30
0.0
70
0
0
VERTEX
8
Fiber_Path_Plus5
10
0.070000
20
0.490000
30
0.0
70
0
0
VERTEX
8
Fiber_Path_Plus5
10
0.070000
20
0.510000
30
0.0
70
0
0
VERTEX
8
Fiber_Path_Plus5
10
0.070000
20
0.530000
30
0.0
70
0
0
VERTEX
8
Fiber_Path_Plus5
10
0.070000
20
0.550000
30
0.0
70
0
0
VERTEX
8
Fiber_Path_Plus5
10
0.070000
20
0.570000
30
0.0
70
0
0
VERTEX
8
Fiber_Path_Plus5
10
0.070000
20
0.590000
30
0.0
70
0
0
VERTEX
8
Fiber_Path_Plus5
10
0.070000
20
0.610000
30
0.0
70
0
0
VERTEX
8
Fiber_Path_Plus5
10
0.070000
20
0.630000
30
0.0
70
0
0
VERTEX
8
Fiber_Path_Plus5
10
0.070000
20
0.650000
30
0.0
70
0
0
VERTEX
8
Fiber_Path_Plus5
10
0.070000
20
0.670000
30
0.0
70
0
0
SEQEND
8
Fiber_Path_Plus5
0
ENDSEC
0
EOF
